<svg xmlns="http://www.w3.org/2000/svg" width="69.442" height="69.438" viewBox="0 0 69.442 69.438"><defs><style>.a{fill:#3e4098;}</style></defs><path class="a" d="M61.768,51.848a9.574,9.574,0,0,0-4.96,1.413l-7.662-7.689a14.879,14.879,0,0,0,0-17.212l7.662-7.684a9.574,9.574,0,0,0,4.96,1.413,9.92,9.92,0,1,0-9.92-9.92,9.573,9.573,0,0,0,1.413,4.96l-7.689,7.662a14.879,14.879,0,0,0-17.212,0l-7.684-7.662a9.574,9.574,0,0,0,1.413-4.96,9.92,9.92,0,1,0-9.92,9.92,9.574,9.574,0,0,0,4.96-1.413l7.662,7.689a14.879,14.879,0,0,0,0,17.212l-7.662,7.684a9.573,9.573,0,0,0-4.96-1.413,9.92,9.92,0,1,0,9.92,9.92,9.574,9.574,0,0,0-1.413-4.96l7.689-7.662a14.879,14.879,0,0,0,17.212,0l7.689,7.662a9.574,9.574,0,0,0-1.413,4.96,9.92,9.92,0,1,0,9.92-9.92Zm0-44.638a4.96,4.96,0,1,1-4.96,4.96A4.96,4.96,0,0,1,61.768,7.21ZM7.21,12.17a4.96,4.96,0,1,1,4.96,4.96A4.96,4.96,0,0,1,7.21,12.17Zm4.96,54.558a4.96,4.96,0,1,1,4.96-4.96A4.96,4.96,0,0,1,12.17,66.728Zm24.8-19.839a9.92,9.92,0,1,1,9.92-9.92A9.92,9.92,0,0,1,36.969,46.888Zm24.8,19.839a4.96,4.96,0,1,1,4.96-4.96A4.96,4.96,0,0,1,61.768,66.728Z" transform="translate(-2.25 -2.25)"/></svg>