<svg xmlns="http://www.w3.org/2000/svg" width="246.669" height="87" viewBox="0 0 246.669 87"><defs><style>.a{fill:#0044a0;}.b{fill:#bc3036;}.c{fill:#e2b32e;}</style></defs><g transform="translate(-0.003)"><g transform="translate(0.003)"><g transform="translate(1.055)"><path class="a" d="M124.79,51.261c0,12.457-9.135,19.251-20.912,19.251H71.34V0h29.82c11.853,0,21.259,7.172,21.259,19.629,0,7.4-3.4,12.306-8.682,15.174C120.336,37.37,124.79,42.654,124.79,51.261ZM99.273,13.74H86.816V28.914H99.273a7.716,7.716,0,0,0,7.7-7.625,7.549,7.549,0,0,0-7.549-7.549Zm10.041,35.482a7.6,7.6,0,0,0-7.625-7.625h-14.8V56.772h14.8a7.482,7.482,0,0,0,7.625-7.247Z" transform="translate(-18.539)"/><path class="a" d="M202.41,70.512H185.046L167.682,43.258h-6.266V70.512H145.94V0h29.9C187.915,0,196.9,9.663,196.9,21.591c0,9.663-5.889,17.364-14.193,19.855ZM182.1,22.12a8.233,8.233,0,0,0-8.606-8.38H161.416V30.424H173.5c4.952,0,8.606-3.4,8.606-8.3Z" transform="translate(-36.82)"/><path class="b" d="M220,0h15.476V70.512H220Z" transform="translate(-54.969)"/><path class="b" d="M249.14,47.939V0h15.476V44.995c0,7.172,5.964,12.683,13.74,12.683s13.891-5.511,13.891-12.683V0h15.476V47.939c0,13.287-12.683,23.479-29.367,23.479C261.868,71.418,249.14,61.226,249.14,47.939Z" transform="translate(-62.11)"/><path class="a" d="M2.17,102.478v2.469H4.948v.755H2.17v2.5H5.394v.755H1.4V101.7H5.394v.755H2.17Z" transform="translate(-1.4 -24.922)"/><path class="a" d="M8.45,99.57H9.2V108.5H8.45Z" transform="translate(-3.128 -24.4)"/><path class="a" d="M15.922,107.449H11.649a1.774,1.774,0,0,0,1.827,1.714,1.736,1.736,0,0,0,1.616-1.11h.755a2.537,2.537,0,0,1-3.163,1.721,2.5,2.5,0,0,1-1.721-3.163,2.544,2.544,0,0,1,4.99.664Zm-4.167-.672h3.337a1.751,1.751,0,0,0-3.337,0Z" transform="translate(-3.715 -25.673)"/><path class="a" d="M18.59,107.342a2.529,2.529,0,0,1,2.491-2.552,2.559,2.559,0,0,1,2.446,1.774h-.755a1.789,1.789,0,1,0-.861,2.386,1.736,1.736,0,0,0,.83-.83H23.5a2.529,2.529,0,0,1-4.937-.755Z" transform="translate(-5.605 -25.679)"/><path class="a" d="M27.065,104.973v2.778a.695.695,0,0,0,.717.755h.612v.559a1.51,1.51,0,0,1-.664.166,1.374,1.374,0,0,1-1.389-1.389v-2.831h-.83v-.755h.83V102.15H27.1v2.106h1.276v.755Z" transform="translate(-7.308 -25.032)"/><path class="a" d="M33.358,104.86v.755a.838.838,0,0,0-.385-.053,1.555,1.555,0,0,0-1.608,1.548v2.725H30.61v-4.869h.755v.755a1.9,1.9,0,0,1,1.608-.755.989.989,0,0,1,.385-.106Z" transform="translate(-8.558 -25.696)"/><path class="a" d="M34.7,107.359a2.5,2.5,0,0,1,2.552-2.5,2.529,2.529,0,0,1,0,5.051,2.574,2.574,0,0,1-2.552-2.552Zm4.273,0a1.782,1.782,0,1,0-1.782,1.774,1.751,1.751,0,0,0,1.782-1.774Z" transform="translate(-9.56 -25.696)"/><path class="a" d="M46.567,106.677v3.1h-.755v-3.1a1.117,1.117,0,0,0-2.227,0v3.1H42.83V104.9h.755v.393a1.616,1.616,0,0,1,1.17-.5,1.88,1.88,0,0,1,1.812,1.887Z" transform="translate(-11.553 -25.679)"/><path class="a" d="M49.62,102.936a.5.5,0,0,1,.5-.506h.053a.506.506,0,0,1,.506.506h0a.506.506,0,0,1-.506.5.513.513,0,0,1-.551-.5Zm.113,1.382h.755V109.2h-.755Z" transform="translate(-13.217 -25.101)"/><path class="a" d="M52.41,107.355a2.529,2.529,0,0,1,4.937-.755h-.755a1.782,1.782,0,1,0-1.668,2.552h.053a1.857,1.857,0,0,0,1.616-1h.755a2.529,2.529,0,0,1-4.937-.755Z" transform="translate(-13.9 -25.692)"/><path class="a" d="M68.537,107.1a1.918,1.918,0,0,1-1.887,1.94H63.63v-7.27h2.657a1.925,1.925,0,0,1,2,1.835v.113a1.759,1.759,0,0,1-1.057,1.661,1.744,1.744,0,0,1,1.306,1.721Zm-2.363-4.605h-1.8v2.469h1.8A1.336,1.336,0,0,0,67.5,103.74a1.276,1.276,0,0,0-1.223-1.276Zm1.555,4.53a1.306,1.306,0,0,0-1.3-1.306H64.377v2.5h2.053a1.223,1.223,0,0,0,1.329-1.223Z" transform="translate(-16.65 -24.939)"/><path class="a" d="M71.45,108.04v-3.11H72.2v3.02a1.11,1.11,0,1,0,2.159.506.755.755,0,0,0,0-.506v-3.02h.755v3.11a1.85,1.85,0,0,1-1.835,1.835,1.8,1.8,0,0,1-1.774-1.835Z" transform="translate(-18.566 -25.714)"/><path class="a" d="M77.33,108.788l.755-.279a.944.944,0,0,0,.944.612.7.7,0,0,0,.755-.612v-.053c0-.393-.332-.559-.891-.755-.891-.332-1.389-.755-1.389-1.51a1.329,1.329,0,0,1,1.336-1.382h.053a1.653,1.653,0,0,1,1.442.755l-.664.332a.808.808,0,0,0-.755-.393c-.385,0-.664.166-.664.612s.332.559.891.83,1.329.612,1.329,1.449a1.4,1.4,0,0,1-1.51,1.382H78.9A1.631,1.631,0,0,1,77.33,108.788Z" transform="translate(-20.007 -25.684)"/><path class="a" d="M82.85,102.975a.544.544,0,0,1,.755-.332.491.491,0,0,1,.332.332.559.559,0,0,1-.717.332A.506.506,0,0,1,82.85,102.975Zm.166,1.382h.755v4.884h-.755Z" transform="translate(-21.36 -25.14)"/><path class="a" d="M89.869,106.677v3.1h-.755v-3.1a1.11,1.11,0,1,0-2.22,0v3.1H86.14V104.9h.755v.393a1.6,1.6,0,0,1,1.163-.5A1.933,1.933,0,0,1,89.869,106.677Z" transform="translate(-22.166 -25.679)"/><path class="a" d="M97.506,107.455H93.233a1.751,1.751,0,0,0,1.88,1.661,1.774,1.774,0,0,0,1.51-1.057h.755a2.544,2.544,0,0,1-3.163,1.721,2.506,2.506,0,0,1-1.721-3.163,2.552,2.552,0,0,1,5,.664Zm-4.167-.672h3.329a1.744,1.744,0,0,0-3.329,0Z" transform="translate(-23.695 -25.679)"/><path class="a" d="M100,108.788l.755-.279a.944.944,0,0,0,.944.612.7.7,0,0,0,.755-.612v-.053c0-.393-.332-.559-.891-.755-.883-.332-1.382-.755-1.382-1.51a1.321,1.321,0,0,1,1.329-1.382h0a1.653,1.653,0,0,1,1.442.755l-.664.332a.808.808,0,0,0-.755-.393c-.393,0-.672.166-.672.612s.279.559.891.83,1.329.612,1.329,1.449a1.4,1.4,0,0,1-1.51,1.382h-.053A1.51,1.51,0,0,1,100,108.788Z" transform="translate(-25.562 -25.684)"/><path class="a" d="M104.9,108.788l.755-.279a.944.944,0,0,0,.944.612.687.687,0,0,0,.755-.612v-.053c0-.393-.332-.559-.883-.755-.891-.332-1.389-.755-1.389-1.51a1.329,1.329,0,0,1,1.329-1.382h.075a1.6,1.6,0,0,1,1.442.83l-.664.332a.808.808,0,0,0-.755-.385c-.385,0-.664.166-.664.6s.279.559.891.838,1.329.612,1.329,1.442a1.4,1.4,0,0,1-1.51,1.389h-.068A1.721,1.721,0,0,1,104.9,108.788Z" transform="translate(-26.763 -25.684)"/><path class="a" d="M119.058,109.04h-.883l-2.053-3.269h-1.366v3.269H114v-7.27h2.612a2.038,2.038,0,0,1,2.053,2v.053A1.91,1.91,0,0,1,117,105.711Zm-2.491-4.077a1.223,1.223,0,1,0,0-2.446h-1.812v2.5h1.835Z" transform="translate(-28.993 -24.939)"/><path class="a" d="M126.243,107.455H121.97a1.767,1.767,0,0,0,3.382.6h.755a2.537,2.537,0,0,1-3.163,1.721,2.506,2.506,0,0,1-1.721-3.163,2.552,2.552,0,0,1,5,.664Zm-4.22-.672h3.329a1.744,1.744,0,0,0-3.329,0Z" transform="translate(-30.735 -25.679)"/><path class="a" d="M133.924,104.891v5.285a2.529,2.529,0,0,1-2.552,2.5,2.589,2.589,0,0,1-2.393-1.691l.755-.332a1.759,1.759,0,0,0,2.22,1.163,1.8,1.8,0,0,0,1.223-1.721v-1.049a2.537,2.537,0,0,1-3.556,0,2.589,2.589,0,0,1,0-3.556,2.657,2.657,0,0,1,1.774-.717,2.688,2.688,0,0,1,1.782.717v-.612Zm-.755,2.446a1.782,1.782,0,1,0-1.782,1.774h0a1.721,1.721,0,0,0,1.782-1.774Z" transform="translate(-32.648 -25.674)"/><path class="a" d="M137.47,102.98a.544.544,0,0,1,.717-.332.491.491,0,0,1,.332.332.559.559,0,0,1-.755.332.506.506,0,0,1-.294-.332Zm.166,1.382h.755v4.884h-.755Z" transform="translate(-34.745 -25.145)"/><path class="a" d="M140.11,108.788l.755-.279a.944.944,0,0,0,.944.612.664.664,0,0,0,.755-.612v-.053c0-.393-.332-.559-.891-.755-.891-.332-1.389-.755-1.389-1.51a1.359,1.359,0,0,1,1.336-1.382h.106a1.676,1.676,0,0,1,1.449.755l-.672.332a.808.808,0,0,0-.755-.393c-.393,0-.664.166-.664.612s.332.559.883.83,1.336.612,1.336,1.449a1.4,1.4,0,0,1-1.51,1.382h-.053a1.57,1.57,0,0,1-1.631-.989Z" transform="translate(-35.392 -25.684)"/><path class="a" d="M146.387,104.973v2.778a.695.695,0,0,0,.755.755h.611v.559a1.51,1.51,0,0,1-.664.166,1.374,1.374,0,0,1-1.389-1.389v-2.831h-.83v-.755h.83V102.15h.755v2.106h1.276v.755Z" transform="translate(-36.558 -25.032)"/><path class="a" d="M152.668,104.86v.755a.838.838,0,0,0-.385-.053,1.555,1.555,0,0,0-1.608,1.548v2.725h-.755v-4.869h.755v.755a1.9,1.9,0,0,1,1.608-.755,1.133,1.133,0,0,1,.385-.106Z" transform="translate(-37.796 -25.696)"/><path class="a" d="M159.118,109.113v.612a.868.868,0,0,1-.332.113,1.117,1.117,0,0,1-1.11-.891,2.159,2.159,0,0,1-1.887.891c-1,0-1.668-.559-1.668-1.336a1.442,1.442,0,0,1,1.608-1.389h1.835v-.385c0-.755-.612-1.163-1.389-1.163s-1.389.385-1.389,1.163h-.755a2.159,2.159,0,0,1,2.325-1.94,2.129,2.129,0,0,1,1.948,1.94V108.5c0,.445.219.611.5.611Zm-1.555-1.057v-.332h-1.721c-.611,0-1,.279-1,.755s.385.755,1,.755A1.631,1.631,0,0,0,157.563,108.057Z" transform="translate(-38.803 -25.677)"/><path class="a" d="M162.507,104.973v2.778a.7.7,0,0,0,.755.755h.611v.559a1.4,1.4,0,0,1-1.887-.612,1.11,1.11,0,0,1-.166-.612v-2.831h-.83v-.755h.762V102.15h.755v2.106h1.276v.755Z" transform="translate(-40.508 -25.032)"/><path class="a" d="M165.91,102.977a.559.559,0,0,1,.755-.332.491.491,0,0,1,.332.332.559.559,0,0,1-.717.332A.529.529,0,0,1,165.91,102.977Zm.174,1.382h.755v4.884h-.755Z" transform="translate(-41.714 -25.142)"/><path class="a" d="M168.71,107.359a2.5,2.5,0,0,1,2.552-2.5,2.469,2.469,0,0,1,2.5,2.552,2.5,2.5,0,0,1-2.552,2.5h0A2.6,2.6,0,0,1,168.71,107.359Zm4.326,0a1.774,1.774,0,1,0-1.774,1.774h0a1.789,1.789,0,0,0,1.774-1.774Z" transform="translate(-42.4 -25.696)"/><path class="a" d="M180.659,106.677v3.1H179.9v-3.1a1.11,1.11,0,1,0-2.22,0v3.1h-.755V104.9h.755v.393a1.593,1.593,0,0,1,1.163-.5,1.9,1.9,0,0,1,1.812,1.887Z" transform="translate(-44.414 -25.679)"/><path class="a" d="M192,109.113v.612a.868.868,0,0,1-.332.113,1.117,1.117,0,0,1-1.11-.891,2.159,2.159,0,0,1-1.887.891c-1,0-1.668-.559-1.668-1.336s.612-1.389,1.668-1.389H190.5v-.385c0-.755-.6-1.163-1.382-1.163s-1.389.385-1.389,1.163h-.755a2.159,2.159,0,0,1,2.333-1.94,2.129,2.129,0,0,1,1.94,1.94V108.5c0,.445.219.612.5.612Zm-1.555-1.057v-.332h-1.721c-.611,0-1,.279-1,.755s.385.755,1,.755a1.676,1.676,0,0,0,1.721-1.11Z" transform="translate(-46.875 -25.677)"/><path class="a" d="M198.229,106.677v3.1h-.755v-3.1a1.11,1.11,0,0,0-2.22,0v3.1H194.5V104.9h.755v.393a1.593,1.593,0,0,1,1.163-.5,1.9,1.9,0,0,1,1.812,1.887Z" transform="translate(-48.72 -25.679)"/><path class="a" d="M205.961,99.57V108.5h-.755v-.612a2.514,2.514,0,1,1,0-3.548V99.623h.755Zm-.755,6.493a1.782,1.782,0,1,0-1.782,1.774A1.782,1.782,0,0,0,205.206,106.063Z" transform="translate(-50.291 -24.4)"/><path class="a" d="M213.11,101.7h.755v7.27h-.755Z" transform="translate(-53.281 -24.922)"/><path class="a" d="M219.839,106.677v3.1h-.755v-3.1a1.11,1.11,0,0,0-2.22,0v3.1h-.755V104.9h.755v.393a1.608,1.608,0,0,1,1.17-.5A1.88,1.88,0,0,1,219.839,106.677Z" transform="translate(-54.016 -25.679)"/><path class="a" d="M225.119,104.312h-1.276v4.107h-.755v-4.107h-.838v-.755h.838v-2.718a1.374,1.374,0,0,1,1.389-1.389,1.57,1.57,0,0,1,.664.166v.559h-.559a.755.755,0,0,0-.717.755v2.657h1.276v.755Z" transform="translate(-55.52 -24.371)"/><path class="a" d="M226.56,107.356a2.529,2.529,0,1,1,2.5,2.552h0A2.567,2.567,0,0,1,226.56,107.356Zm4.273,0a1.774,1.774,0,1,0-1.774,1.774,1.751,1.751,0,0,0,1.774-1.774Z" transform="translate(-56.577 -25.694)"/><path class="a" d="M237.506,104.86v.755a.883.883,0,0,0-.393-.053,1.563,1.563,0,0,0-1.608,1.548h0v2.665h-.755V104.89h.755v.755a1.91,1.91,0,0,1,1.608-.755Z" transform="translate(-58.584 -25.696)"/><path class="a" d="M245.715,106.692v3.1h-.755v-3.1a1.057,1.057,0,0,0-2.114,0h0v3.1h-.755v-3.1a1.058,1.058,0,0,0-2.114-.113v3.276h-.717v-4.892h.755v.445a1.419,1.419,0,0,1,1.11-.559,1.563,1.563,0,0,1,1.329.755,1.759,1.759,0,0,1,1.442-.755,1.782,1.782,0,0,1,1.835,1.835Z" transform="translate(-59.689 -25.694)"/><path class="a" d="M254.361,109.113v.612a.83.83,0,0,1-.385.113,1.11,1.11,0,0,1-1.11-.891,2.159,2.159,0,0,1-1.887.891c-1,0-1.668-.559-1.668-1.336s.612-1.389,1.668-1.389h1.872v-.385c0-.755-.612-1.163-1.389-1.163s-1.382.385-1.382,1.163h-.755a2.159,2.159,0,0,1,2.325-1.94,2.129,2.129,0,0,1,1.948,1.94V108.5c0,.445.219.611.5.611Zm-1.555-1.057v-.332h-1.691c-.612,0-1,.279-1,.755s.385.755,1,.755a1.676,1.676,0,0,0,1.736-1.178Z" transform="translate(-62.152 -25.677)"/><path class="a" d="M257.675,104.973v2.778a.7.7,0,0,0,.755.755h.611v.559a1.4,1.4,0,0,1-1.887-.612,1.11,1.11,0,0,1-.166-.611v-2.831h-.838v-.755h.838V102.15h.755v2.106h1.276v.755Z" transform="translate(-63.828 -25.032)"/><path class="a" d="M261.11,102.977a.559.559,0,0,1,.755-.332.491.491,0,0,1,.332.332.566.566,0,0,1-.755.332A.71.71,0,0,1,261.11,102.977Zm.166,1.382h.755v4.884h-.755Z" transform="translate(-65.043 -25.142)"/><path class="a" d="M264,107.356a2.529,2.529,0,1,1,2.5,2.552h0A2.567,2.567,0,0,1,264,107.356Zm4.273,0a1.774,1.774,0,1,0-1.774,1.774h0a1.751,1.751,0,0,0,1.759-1.774Z" transform="translate(-65.751 -25.694)"/><path class="a" d="M275.835,106.677v3.1h-.755v-3.1a1.132,1.132,0,0,0-2.265,0v3.1h-.755V104.9h.755v.393a1.616,1.616,0,0,1,1.17-.5A1.887,1.887,0,0,1,275.835,106.677Z" transform="translate(-67.727 -25.679)"/><path class="a" d="M282.43,106.654V101.77h.755v4.771a1.986,1.986,0,0,0,2.106,1.835,2.016,2.016,0,0,0,1.835-1.835V101.77h.755v4.884a2.552,2.552,0,0,1-2.718,2.5A2.627,2.627,0,0,1,282.43,106.654Z" transform="translate(-70.268 -24.939)"/><path class="a" d="M296.588,107.323a2.5,2.5,0,0,1-2.559,2.5,2.665,2.665,0,0,1-1.774-.755v3.556H291.5v-7.776h.755v.612a2.491,2.491,0,0,1,3.556,0,2.627,2.627,0,0,1,.755,1.835Zm-.755,0a1.774,1.774,0,1,0-1.774,1.774h0a1.789,1.789,0,0,0,1.774-1.774Z" transform="translate(-72.49 -25.66)"/><path class="a" d="M304.361,99.57V108.5h-.755v-.612a2.514,2.514,0,1,1,0-3.548V99.623h.755Zm-.755,6.493a1.782,1.782,0,1,0-1.774,1.774,1.751,1.751,0,0,0,1.774-1.774Z" transform="translate(-74.404 -24.4)"/><path class="a" d="M312.705,109.113v.612a.86.86,0,0,1-.34.113,1.125,1.125,0,0,1-1.11-.891,2.144,2.144,0,0,1-1.887.891c-1,0-1.661-.559-1.661-1.336s.612-1.389,1.661-1.389H311.2v-.385c0-.755-.612-1.163-1.389-1.163s-1.389.385-1.389,1.163h-.755a2.159,2.159,0,0,1,2.325-1.94,2.129,2.129,0,0,1,1.948,1.94V108.5c0,.445.219.611.5.611Zm-1.555-1.057v-.332h-1.721c-.611,0-1,.279-1,.755s.393.755,1,.755a1.676,1.676,0,0,0,1.721-1.11Z" transform="translate(-76.453 -25.677)"/><path class="a" d="M315.965,104.973v2.778a.695.695,0,0,0,.717.755h.612v.559a1.51,1.51,0,0,1-.664.166,1.374,1.374,0,0,1-1.389-1.389v-2.831h-.83v-.755h.83V102.15H316v2.106h1.276v.755Z" transform="translate(-78.105 -25.032)"/><path class="a" d="M324.1,107.455h-4.273a1.767,1.767,0,0,0,3.382.6h.838a2.544,2.544,0,1,1-2.5-3.269,2.484,2.484,0,0,1,2.5,2.491Zm-4.22-.672H323.2a1.721,1.721,0,0,0-1.661-1.215,1.842,1.842,0,0,0-1.668,1.215Z" transform="translate(-79.244 -25.679)"/></g><g transform="translate(0 22.321)"><path class="a" d="M.063,53.66A21.7,21.7,0,0,1,6.148,37.708C17.042,25.742,37.5,27,46.583,41.256A19.945,19.945,0,0,1,49.5,48.314H40.959a28.167,28.167,0,0,1-4.371-.106c-2.031-4.93-7-7.8-12.834-7.293-4.817.423-8.372,2.71-10.245,7.308-.966,1.7-.929,3.616-1.223,5.466Z" transform="translate(-0.013 -29.567)"/><path class="b" d="M.054,61.48H12.306c.151,2.038.249,4.084,1.336,5.911,1.555,3.873,4.643,5.873,8.523,6.711a12.751,12.751,0,0,0,11.5-3.02,2.393,2.393,0,0,1,1.729-.642H48.317a19.281,19.281,0,0,1-2.974,5.171C39.56,82.9,31.98,86.182,22.77,85.427,13.424,84.672,6.493,80.052,2.183,71.7A19,19,0,0,1,.054,61.48Z" transform="translate(-0.003 -37.387)"/><path class="c" d="M17.636,65.627c-1.087-1.812-1.185-3.873-1.336-5.911.287-1.85.249-3.775,1.215-5.466a22.6,22.6,0,0,0,4.167,0H40.556a28.168,28.168,0,0,0,4.371.106h8.546a22.49,22.49,0,0,1,.106,10.63c-.159.8-.71.619-1.2.619l-27.623.053C22.385,65.665,20.014,65.642,17.636,65.627Z" transform="translate(-3.997 -35.615)"/></g></g></g></svg>