<svg xmlns="http://www.w3.org/2000/svg" width="359.706" height="64" viewBox="0 0 359.706 64"><defs><style>.a{fill:#bc3036;}.b{fill:#0044a0;}.c{fill:#e2b32e;}</style></defs><g transform="translate(0.007 -0.026)"><g transform="translate(-0.007 0.026)"><g transform="translate(0 0)"><path class="a" d="M1347.245,22.771c-1.309,6.868-7.016,11.512-14.278,12.278-3.854.4-7.732.148-11.586.173-1.087,0-1.383.3-1.359,1.383.049,5.583,0,11.191.049,16.774,0,1.038-.2,1.457-1.334,1.408-1.927-.1-3.878-.049-5.805,0-.815.025-1.062-.272-1.038-1.062.049-3.409.025-6.818.025-10.227q0-18.935-.025-37.87c0-1.112.272-1.457,1.408-1.433,6,.074,12.006-.074,18.009.049,5.385.124,10.054,1.976,13.414,6.423a14.654,14.654,0,0,1,2.52,5.706,19.9,19.9,0,0,1,.272,3.211A23.45,23.45,0,0,1,1347.245,22.771Zm-27.223-3.137v7.287c0,.593.049,1.013.84,1.013,3.532-.049,7.09.074,10.622-.074a7.589,7.589,0,0,0,7.609-7.411c.173-5.039-2.4-8.325-7.09-8.868-3.73-.445-7.485-.1-11.215-.2-.766-.025-.741.469-.741.988C1320.022,14.792,1320.022,17.213,1320.022,19.634Z" transform="translate(-987.811 -3.163)"/><path class="b" d="M254.064,26.471c-.42-13.241,10.474-24.7,23.641-26.062C288.97-.728,298.184,3.1,304.533,12.587c8.572,12.821,3.681,29.866-10.375,37.055a28.445,28.445,0,0,1-32.584-4.891A24.929,24.929,0,0,1,254.064,26.471Zm27-14.031c-8.053,0-13.488,5.805-13.463,14.4,0,7.905,5.706,13.661,13.463,13.636a14.02,14.02,0,0,0,0-28.038Z" transform="translate(-191.291 -0.168)"/><path class="b" d="M670.468,25.551c.321-13.019,10.474-23.172,22.5-25.024,11.536-1.779,21.64,2.668,27.4,12.03.568.914.519,1.383-.445,2-2.742,1.754-5.41,3.607-8.078,5.459-.692.494-1.062.543-1.507-.247a15.278,15.278,0,0,0-2.248-2.915c-6.052-6.645-17.243-5.879-21.887,1.581-3.977,6.373-3.063,17.589,6.25,21.072,5.756,2.149,12.673.988,17.292-5.558,1.26-1.779,1.26-1.779,3.039-.568,2.5,1.68,4.941,3.384,7.46,5.039.667.445.741.791.346,1.457-4.545,7.46-11.116,11.759-19.837,12.574-8.448.815-16.008-1.482-22.233-7.362A24.77,24.77,0,0,1,670.468,25.551Z" transform="translate(-504.831 -0.113)"/><path class="b" d="M506.132,3.949c6.843,0,13.661.025,20.479-.025,1.062,0,1.309.321,1.285,1.334-.074,3.162-.049,6.324,0,9.486,0,.865-.272,1.112-1.136,1.112-4.2-.025-8.4.025-12.6-.049-1.21-.025-1.507.371-1.507,1.556.049,11.833.025,23.69.025,35.523,0,1.63,0,1.63-1.581,1.63-3.458,0-6.917-.025-10.375.025-1.038.025-1.309-.3-1.309-1.334.025-11.956,0-23.937.049-35.894,0-1.161-.272-1.532-1.482-1.507-4.15.074-8.3,0-12.475.049-1.062.025-1.334-.321-1.309-1.334.049-3.137.049-6.25,0-9.387-.025-.988.321-1.235,1.285-1.235C492.4,3.974,499.264,3.949,506.132,3.949Z" transform="translate(-364.58 -2.943)"/><path class="a" d="M1132.848,29.281c0,7.979-.025,15.958.025,23.937,0,1.087-.272,1.433-1.359,1.383-1.853-.1-3.706-.074-5.558,0-1.013.049-1.334-.247-1.309-1.285.049-6.744.025-13.488.025-20.232,0-1.606,0-1.606-1.556-1.606h-22.109c-1.63,0-1.63,0-1.63,1.581,0,6.719-.025,13.414.025,20.108,0,1.112-.272,1.507-1.433,1.457-1.927-.1-3.878-.049-5.805,0-.815.025-1.062-.272-1.062-1.062q.037-24.271,0-48.517c0-.815.272-1.062,1.062-1.038,2.026.049,4.027.074,6.052,0,.963-.025,1.161.3,1.161,1.186-.025,5.805.025,11.611-.049,17.391-.025,1.285.4,1.581,1.606,1.556q11.116-.074,22.233,0c1.136,0,1.556-.222,1.531-1.482-.074-5.805,0-11.611-.049-17.391,0-1.038.3-1.309,1.309-1.285,1.853.074,3.705.1,5.558,0,1.087-.049,1.383.247,1.383,1.359-.049,6.868-.025,13.735-.025,20.6Z" transform="translate(-821.56 -3.003)"/><path class="a" d="M910.325,29.245c0-7.93.025-15.884-.025-23.814,0-1.235.346-1.482,1.532-1.482,6,.074,12.03-.124,18.033.074,6.62.2,12.055,2.791,14.921,9.116,4.175,9.288-1.408,19.54-11.561,21.442-3.928.741-7.88.371-11.833.445-2.792.049-2.792,0-2.792,2.742,0,5.188-.025,10.375.025,15.563,0,.988-.3,1.26-1.26,1.235-1.927-.074-3.878-.074-5.805,0-1.013.049-1.334-.346-1.21-1.26v-.124Zm14.4-1.532v-.049c1.779,0,3.533.1,5.311-.025a7.7,7.7,0,0,0,7.609-7.93c.1-4.57-2.668-7.856-7.139-8.374-3.681-.42-7.386-.074-11.092-.2-.791-.025-.84.42-.84,1.013,0,4.842.025,9.684,0,14.55,0,.741.2,1.013.964.988C921.268,27.689,923,27.713,924.727,27.713Z" transform="translate(-685.424 -2.967)"/><path class="b" d="M.127,26.255c-.3-6.744,2.174-12.475,6.62-17.366C18.605-4.13,40.887-2.772,50.769,12.742a21.68,21.68,0,0,1,3.187,7.683c-3.113,0-6.2,0-9.313-.025a30.749,30.749,0,0,1-4.768-.124c-2.2-5.361-7.609-8.5-13.933-7.93-5.237.469-9.116,2.94-11.166,7.954-1.062,1.853-1.013,3.928-1.334,5.953Z" transform="translate(-0.076 -0.026)"/><path class="a" d="M.044,106.2h13.34c.173,2.223.272,4.447,1.457,6.448,1.68,4.224,5.064,6.4,9.264,7.312A13.923,13.923,0,0,0,36.63,116.7a2.648,2.648,0,0,1,1.877-.692c4.274.025,8.547.025,12.846.025h1.26a21.674,21.674,0,0,1-3.236,5.632c-6.3,7.93-14.55,11.512-24.58,10.7-10.178-.815-17.712-5.855-22.406-14.945A21.068,21.068,0,0,1,.044,106.2Z" transform="translate(0.007 -79.972)"/><path class="c" d="M55.657,94.426c-1.186-1.976-1.285-4.224-1.457-6.448.321-2,.272-4.1,1.334-5.953a25.383,25.383,0,0,0,4.545.025c6.843,0,13.71-.025,20.553-.049a30.749,30.749,0,0,0,4.768.124c3.113.049,6.2.025,9.313.025a24.4,24.4,0,0,1,.124,11.561c-.173.865-.766.667-1.309.667q-15.044.037-30.064.049C60.845,94.45,58.251,94.426,55.657,94.426Z" transform="translate(-40.809 -61.75)"/><path class="b" d="M6.759,226.21v2.3H9.7v1.235H6.759v2.3h3.384v1.235H5.4V225h4.743v1.235Z" transform="translate(-4.064 -169.424)"/><path class="b" d="M28.8,244.7h3.854v1.062H28.8Z" transform="translate(-21.684 -184.258)"/><path class="b" d="M55.7,233.251H54.194L52,229.768H50.859v3.483H49.5V225h3.236a2.4,2.4,0,0,1,2.4,2.4v.049a2.275,2.275,0,0,1-1.779,2.223Zm-3.137-4.644a1.187,1.187,0,0,0,.1-2.372H50.834v2.372Z" transform="translate(-37.27 -169.424)"/><path class="b" d="M78.659,226.21v2.3H81.6v1.235h-2.94v2.3h3.384v1.235H77.3V225h4.743v1.235Z" transform="translate(-58.203 -169.424)"/><path class="b" d="M99.2,231.219l1.161-.716a1.88,1.88,0,0,0,1.754,1.186c.766,0,1.334-.4,1.334-1.087,0-1.754-3.9-1.087-3.9-3.8a2.289,2.289,0,0,1,2.47-2.3,3.06,3.06,0,0,1,2.372,1.112l-.939.865a1.8,1.8,0,0,0-1.408-.716c-.618,0-1.112.3-1.112.963,0,1.7,3.9.988,3.9,3.9A2.443,2.443,0,0,1,102.14,233,3.182,3.182,0,0,1,99.2,231.219Z" transform="translate(-74.693 -169.048)"/><path class="b" d="M125.9,225h1.359v8.276H125.9Z" transform="translate(-94.797 -169.424)"/><path class="b" d="M143.6,231.028a2.2,2.2,0,0,1-2.347,2.223H137.7V225h3.261a2.226,2.226,0,0,1,2.372,2.248,1.889,1.889,0,0,1-1.112,1.828A2.016,2.016,0,0,1,143.6,231.028Zm-2.816-4.792h-1.754v2.3h1.754a1.181,1.181,0,0,0,1.186-1.161,1.139,1.139,0,0,0-1.161-1.136Zm1.458,4.62a1.181,1.181,0,0,0-1.186-1.161h-2.05v2.3h2.026a1.139,1.139,0,0,0,1.186-1.112c.025,0,.025,0,.025-.025Z" transform="translate(-103.682 -169.424)"/><path class="b" d="M164.8,228.749A4.249,4.249,0,1,1,169.074,233a4.249,4.249,0,0,1-4.274-4.249Zm7.164,0a2.915,2.915,0,1,0-2.915,2.915h0a2.852,2.852,0,0,0,2.89-2.841.091.091,0,0,1,.025-.074Z" transform="translate(-124.087 -169.048)"/><path class="b" d="M214.6,228.749A4.249,4.249,0,1,1,218.849,233a4.249,4.249,0,0,1-4.249-4.249Zm7.164,0a2.915,2.915,0,1,0-2.915,2.915,2.852,2.852,0,0,0,2.89-2.841.091.091,0,0,0,.025-.074Z" transform="translate(-161.585 -169.048)"/><path class="b" d="M260.987,225v8.276h-1.359l-4.57-6.151v6.151H253.7V225h1.359l4.595,6.126V225Z" transform="translate(-191.026 -169.424)"/><path class="b" d="M293.449,232.016v1.26H289.2V225h1.359v7.016Z" transform="translate(-217.756 -169.424)"/><path class="b" d="M309.3,225h1.359v8.276H309.3Z" transform="translate(-232.891 -169.424)"/><path class="b" d="M328.287,225v8.276h-1.359l-4.57-6.151v6.151H321V225h1.359l4.595,6.126V225Z" transform="translate(-241.701 -169.424)"/><path class="b" d="M358.159,226.21v2.3h2.94v1.235h-2.94v2.3h3.384v1.235H356.8V225h4.743v1.235Z" transform="translate(-268.657 -169.424)"/><path class="b" d="M395.331,226.235h-2.2v7.016H391.8v-7.016h-2.2V225h5.706v1.235Z" transform="translate(-293.354 -169.424)"/><path class="b" d="M421.5,233.251h-1.507l-2.2-3.483h-1.136v3.483H415.3V225h3.236a2.4,2.4,0,0,1,2.4,2.4v.049a2.254,2.254,0,0,1-1.8,2.248Zm-3.137-4.644a1.187,1.187,0,1,0,.1-2.372h-1.828v2.372Z" transform="translate(-312.706 -169.424)"/><path class="b" d="M444.459,226.21v2.3h2.94v1.235h-2.94v2.3h3.384v1.235H443.1V225h4.743v1.235Z" transform="translate(-333.638 -169.424)"/><path class="b" d="M468.835,231.6H465.45l-.593,1.754H463.4l2.989-8.251H467.9l2.989,8.276h-1.457Zm-.4-1.186-1.309-3.854-1.285,3.854Z" transform="translate(-348.923 -169.499)"/><path class="b" d="M493.2,231.219l1.161-.716a1.88,1.88,0,0,0,1.754,1.186c.766,0,1.334-.4,1.334-1.087,0-1.754-3.9-1.087-3.9-3.8a2.289,2.289,0,0,1,2.47-2.3,3.06,3.06,0,0,1,2.372,1.112l-.963.865a1.814,1.814,0,0,0-1.433-.716c-.618,0-1.112.3-1.112.963,0,1.7,3.9.988,3.9,3.9A2.443,2.443,0,0,1,496.09,233,3.161,3.161,0,0,1,493.2,231.219Z" transform="translate(-371.362 -169.048)"/><path class="b" d="M519.5,230.583V225h1.359v5.336a1.933,1.933,0,0,0,3.854,0V225h1.359v5.583c0,1.606-1.408,2.791-3.286,2.791A3,3,0,0,1,519.5,230.583Z" transform="translate(-391.165 -169.424)"/><path class="b" d="M558,233.251h-1.507l-2.2-3.483h-1.136v3.483H551.8V225h3.236a2.4,2.4,0,0,1,2.4,2.4v.049a2.254,2.254,0,0,1-1.8,2.248Zm-3.113-4.644a1.187,1.187,0,0,0,.1-2.372h-1.828v2.372Z" transform="translate(-415.486 -169.424)"/><path class="b" d="M577.824,229.348v3.9h-1.359v-3.878L573.6,225h1.581l1.976,3.113,2-3.113h1.556Z" transform="translate(-431.9 -169.424)"/><path class="b" d="M615.2,228.749a4.231,4.231,0,0,1,7.954-2.026l-1.161.618a2.908,2.908,0,1,0-1.136,3.953,3.132,3.132,0,0,0,1.136-1.136l1.161.618a4.23,4.23,0,0,1-7.954-2.026Z" transform="translate(-463.224 -169.048)"/><path class="b" d="M651.835,231.6H648.45l-.593,1.754H646.4l2.989-8.251H650.9l2.989,8.276h-1.458Zm-.4-1.186-1.285-3.854-1.285,3.854Z" transform="translate(-486.716 -169.499)"/><path class="b" d="M676.2,231.219l1.161-.716a1.88,1.88,0,0,0,1.754,1.186c.766,0,1.334-.4,1.334-1.087,0-1.754-3.9-1.087-3.9-3.8a2.289,2.289,0,0,1,2.47-2.3,3.06,3.06,0,0,1,2.372,1.112l-.939.865a1.814,1.814,0,0,0-1.433-.716c-.618,0-1.112.3-1.112.963,0,1.7,3.9.988,3.9,3.9A2.443,2.443,0,0,1,679.115,233,3.171,3.171,0,0,1,676.2,231.219Z" transform="translate(-509.155 -169.048)"/><path class="b" d="M709.27,225v8.276h-1.359v-3.533h-3.953v3.508H702.6V225h1.359v3.508h3.953V225Z" transform="translate(-529.033 -169.424)"/><path class="b" d="M735.9,225h1.359v8.276H735.9Z" transform="translate(-554.107 -169.424)"/><path class="b" d="M749.159,226.21v2.3h2.94v1.235h-2.94v2.3h3.384v1.235H747.8V225h4.743v1.235Z" transform="translate(-563.067 -169.424)"/><path class="b" d="M778.4,233.251h-1.507l-2.2-3.483h-1.136v3.483H772.2V225h3.236a2.4,2.4,0,0,1,2.4,2.4v.049a2.254,2.254,0,0,1-1.8,2.248Zm-3.113-4.644a1.187,1.187,0,1,0,.1-2.372h-1.828v2.372Z" transform="translate(-581.439 -169.424)"/><path class="b" d="M813.235,231.6H809.85l-.593,1.754H807.8l2.989-8.251H812.3l2.989,8.276h-1.457Zm-.4-1.186-1.309-3.854-1.285,3.854Z" transform="translate(-608.245 -169.499)"/><path class="b" d="M847.287,225v8.276h-1.359l-4.57-6.151v6.151H840V225h1.359l4.595,6.126V225Z" transform="translate(-632.491 -169.424)"/><path class="b" d="M875.5,225h2.47a4.127,4.127,0,0,1,0,8.251H875.5Zm2.47,7.016a2.88,2.88,0,0,0,0-5.756h-1.136v5.756Z" transform="translate(-659.221 -169.424)"/><path class="b" d="M924.632,227.4a2.341,2.341,0,0,1-2.322,2.347h-1.952v3.508H919V225h3.236a2.383,2.383,0,0,1,2.4,2.4Zm-1.309,0a1.16,1.16,0,0,0-1.136-1.186h-1.8v2.347h1.7A1.122,1.122,0,0,0,923.323,227.4Z" transform="translate(-691.975 -169.424)"/><path class="b" d="M943.4,228.749A4.249,4.249,0,1,1,947.649,233h0A4.249,4.249,0,0,1,943.4,228.749Zm7.164,0a2.915,2.915,0,1,0-2.915,2.915h0a2.852,2.852,0,0,0,2.89-2.841.091.091,0,0,0,.025-.074Z" transform="translate(-710.347 -169.048)"/><path class="b" d="M980.1,231.219l1.161-.716a1.88,1.88,0,0,0,1.754,1.186c.766,0,1.334-.4,1.334-1.087,0-1.754-3.9-1.087-3.9-3.8a2.3,2.3,0,0,1,2.47-2.3,3.06,3.06,0,0,1,2.371,1.112l-.939.865a1.814,1.814,0,0,0-1.433-.716c-.618,0-1.112.3-1.112.963,0,1.7,3.9.988,3.9,3.9A2.443,2.443,0,0,1,983.015,233,3.171,3.171,0,0,1,980.1,231.219Z" transform="translate(-737.981 -169.048)"/><path class="b" d="M1025.17,225v8.276h-1.359v-3.533h-3.953v3.508H1018.5V225h1.359v3.508h3.953V225Z" transform="translate(-766.895 -169.424)"/><path class="b" d="M1050.2,228.749a4.249,4.249,0,1,1,4.249,4.249,4.249,4.249,0,0,1-4.249-4.249Zm7.164,0a2.915,2.915,0,1,0-2.915,2.915,2.852,2.852,0,0,0,2.89-2.841.091.091,0,0,0,.025-.074Z" transform="translate(-790.764 -169.048)"/><path class="b" d="M1086.9,231.219l1.161-.716a1.88,1.88,0,0,0,1.754,1.186c.766,0,1.334-.4,1.334-1.087,0-1.754-3.9-1.087-3.9-3.8a2.289,2.289,0,0,1,2.47-2.3,3.06,3.06,0,0,1,2.371,1.112l-.939.865a1.813,1.813,0,0,0-1.433-.716c-.593,0-1.112.3-1.112.963,0,1.7,3.9.988,3.9,3.9a2.443,2.443,0,0,1-2.693,2.372A3.171,3.171,0,0,1,1086.9,231.219Z" transform="translate(-818.398 -169.048)"/><path class="b" d="M1115.431,226.235h-2.2v7.016H1111.9v-7.016h-2.2V225h5.731Z" transform="translate(-835.566 -169.424)"/><path class="b" d="M1135.6,225h1.359v8.276H1135.6Z" transform="translate(-855.068 -169.424)"/><path class="b" d="M1154.588,225v8.276h-1.359l-4.57-6.151v6.151H1147.3V225h1.359l4.595,6.126V225Z" transform="translate(-863.878 -169.424)"/><path class="b" d="M1189.947,228.428v.321a4.323,4.323,0,1,1-.543-2.026l-1.161.618a2.913,2.913,0,1,0-5.114,2.791,2.953,2.953,0,0,0,2.569,1.532,2.814,2.814,0,0,0,2.792-2.1h-2.816v-1.136h4.274Z" transform="translate(-889.553 -169.048)"/><path class="b" d="M1238.357,227.4a2.34,2.34,0,0,1-2.322,2.347h-1.976v3.508H1232.7V225h3.261a2.383,2.383,0,0,1,2.4,2.4Zm-1.309,0a1.175,1.175,0,0,0-1.26-1.186h-1.7v2.347h1.7A1.13,1.13,0,0,0,1237.048,227.4Z" transform="translate(-928.181 -169.424)"/><path class="b" d="M1262.849,232.016v1.26H1258.6V225h1.359v7.016Z" transform="translate(-947.683 -169.424)"/><path class="b" d="M1281.935,231.522h-3.384l-.593,1.754H1276.5l2.989-8.276H1281l2.989,8.276h-1.458Zm-.4-1.186-1.309-3.854-1.285,3.854Z" transform="translate(-961.161 -169.424)"/><path class="b" d="M1310.031,226.235h-2.2v7.016H1306.5v-7.016h-2.2V225h5.731Z" transform="translate(-982.093 -169.424)"/><path class="b" d="M1331.558,226.21v2.3h2.94v1.235h-2.94v3.508H1330.2V225h4.743v1.235Z" transform="translate(-1001.595 -169.424)"/><path class="b" d="M1351.2,228.749a4.249,4.249,0,1,1,4.249,4.249,4.249,4.249,0,0,1-4.249-4.249Zm7.139,0a2.915,2.915,0,1,0-2.915,2.915,2.868,2.868,0,0,0,2.915-2.816Z" transform="translate(-1017.407 -169.048)"/><path class="b" d="M1396.5,233.251h-1.507l-2.2-3.483h-1.136v3.483H1390.3V225h3.236a2.4,2.4,0,0,1,2.4,2.4v.049a2.254,2.254,0,0,1-1.8,2.248Zm-3.137-4.644a1.187,1.187,0,1,0,.1-2.372h-1.828v2.372Z" transform="translate(-1046.849 -169.424)"/><path class="b" d="M1426.5,225v8.276h-1.334v-5.706l-2.569,5.706h-.889l-2.544-5.682v5.682H1417.8V225h1.457l2.89,6.472,2.89-6.472Z" transform="translate(-1067.555 -169.424)"/></g></g></g></svg>