<svg xmlns="http://www.w3.org/2000/svg" width="273.714" height="70" viewBox="0 0 273.714 70"><defs><style>.a{fill:#114faa;}.b{fill:#5aa630;}</style></defs><g transform="translate(-0.004 0.003)"><g transform="translate(0.004 -0.003)"><path class="a" d="M62.612,49.063H58.865c-.854,0-1.375-.522-1.375-1.581V14.492c0-4.268,1.5-6.228,5.865-6.228h5.137A33.29,33.29,0,0,1,79.715,9.655c4.379,1.786,5.833,5.754,5.833,10.591,0,5.485-2.087,9.627-7.667,11.3a33.764,33.764,0,0,1-8.994.98H64.145V47.5a1.438,1.438,0,0,1-1.265,1.581Zm6.623-21.956a17.657,17.657,0,0,0,6.228-.743,5.706,5.706,0,0,0,3.288-5.706c0-3.525-1.28-5.248-3.161-6.054a21.024,21.024,0,0,0-6.513-.7H65.915c-1.265,0-1.786.585-1.786,2.023V27.106Z" transform="translate(33.381 4.782)"/><path class="a" d="M100.092,42.665a3.9,3.9,0,0,1-1.849,1.328,36.215,36.215,0,0,1-11.176,1.676c-8.821,0-10.607-4.331-10.607-9.279,0-3.462.98-5.6,3.241-7.034a18.969,18.969,0,0,1,9.089-1.8,44.972,44.972,0,0,1,5.6.221v-1.8a10.179,10.179,0,0,0-.348-3.161c-.458-1.2-1.581-1.944-5.359-1.944a31.236,31.236,0,0,0-6.054.632c-.743.111-1.9.332-2.292.332a1.107,1.107,0,0,1-1.107-.917,17.216,17.216,0,0,1-.458-2.845,1.438,1.438,0,0,1,1.154-1.581A37.084,37.084,0,0,1,89.6,15.16c4.964,0,7.556.632,9.168,2.245s1.96,3.683,1.96,7.6V39.93A4.126,4.126,0,0,1,100.092,42.665ZM89.548,32.3a11.065,11.065,0,0,0-5.706.964c-.869.522-1.265,1.391-1.265,3,0,2.656.98,4.442,5.3,4.442a15.191,15.191,0,0,0,5.248-.806,1.581,1.581,0,0,0,.98-.98,5.849,5.849,0,0,0,.237-1.881V32.469a44.623,44.623,0,0,0-4.79-.174Z" transform="translate(44.397 8.809)"/><path class="a" d="M97.129,17.221c0-.869.285-1.581,1.328-1.581H102.2c.917,0,1.312.632,1.312,1.581V34.609a11.065,11.065,0,0,0,.348,3.288c.458,1.265,1.676,1.834,4.489,1.834a13.879,13.879,0,0,0,5.833-.98,2.545,2.545,0,0,0,1.091-.68,2.134,2.134,0,0,0,.4-1.5V17.221c0-.869.411-1.581,1.391-1.581h3.683c.869,0,1.328.569,1.328,1.581v25.75a25.293,25.293,0,0,1-.743,7.145c-1.581,5.865-7.9,8-19.127,8-1.154,0-1.581-.221-1.786-1.154a20.963,20.963,0,0,1-.174-2.64c0-.98.458-1.676,1.438-1.676,9.959-.285,12.33-1.676,13.247-3.983a10.543,10.543,0,0,0,.569-3.9V43.54a20.992,20.992,0,0,1-9.263,1.849c-5.311,0-7.6-1.391-8.473-3.683a17.515,17.515,0,0,1-.632-5.659Z" transform="translate(56.386 9.088)"/><path class="b" d="M135.156,49.049h-3.81a1.375,1.375,0,0,1-1.454-1.3,1.72,1.72,0,0,1,0-.285V14.178H119.348c-.964,0-1.438-.285-1.438-1.2V9.641c0-1.107.522-1.391,1.438-1.391h27.837c.98,0,1.5.285,1.5,1.391v3.288c0,.917-.522,1.2-1.5,1.2H136.579V47.484a1.359,1.359,0,0,1-1.17,1.581Z" transform="translate(68.469 4.796)"/><path class="b" d="M160.492,42.653a3.9,3.9,0,0,1-1.849,1.328,36.215,36.215,0,0,1-11.176,1.676c-8.821,0-10.607-4.331-10.607-9.279,0-3.462.98-5.6,3.161-7.034a19.1,19.1,0,0,1,9.168-1.786,44.973,44.973,0,0,1,5.6.221V25.961a10.18,10.18,0,0,0-.348-3.161c-.458-1.2-1.581-1.944-5.359-1.944a31.236,31.236,0,0,0-6.054.632c-.743.111-1.9.332-2.292.332a1.106,1.106,0,0,1-1.107-.917,18.657,18.657,0,0,1-.458-2.814,1.438,1.438,0,0,1,1.154-1.581A37.084,37.084,0,0,1,150,15.18c4.964,0,7.556.632,9.168,2.245s1.96,3.683,1.96,7.6V39.95A4.015,4.015,0,0,1,160.492,42.653Zm-10.544-10.37a11.065,11.065,0,0,0-5.706.964c-.869.522-1.265,1.391-1.265,3,0,2.656.98,4.442,5.3,4.442a15.033,15.033,0,0,0,5.3-.759,1.581,1.581,0,0,0,.98-.98,5.849,5.849,0,0,0,.237-1.929V32.457a45.557,45.557,0,0,0-4.837-.174Z" transform="translate(79.474 8.821)"/><path class="b" d="M162.707,43.493c-.7.917-1.091,1.265-2.071,1.265s-3.683-.095-4.363-.095a.933.933,0,0,1-.743-.98,2.814,2.814,0,0,1,.7-1.581l9.042-12.267-8.3-11.46a2.687,2.687,0,0,1-.743-1.581.933.933,0,0,1,.68-.869c.7-.111,3.572-.285,4.837-.285.933,0,1.328.411,2.134,1.581,3.161,4.379,4.616,6.513,5.88,8.3,1.091-1.676,2.656-4.031,5.817-8.362.759-1.027,1.265-1.438,2.2-1.438a33.719,33.719,0,0,1,4.379.237.98.98,0,0,1,.68.854,2.956,2.956,0,0,1-.68,1.581l-8.489,11.445,9.105,12.314a2.466,2.466,0,0,1,.632,1.581,1.012,1.012,0,0,1-.632.933c-.348.111-3.509.174-4.9.174-1.027,0-1.375-.348-2.008-1.217-3.92-5.359-5.248-7.366-6.623-9.39C167.892,36.174,166.738,37.96,162.707,43.493Z" transform="translate(90.315 9.088)"/><path class="a" d="M39.076,70A35,35,0,1,1,72.508,24.63a5.224,5.224,0,1,1-9.959,3.161h0A24.58,24.58,0,1,0,57.222,51.5a29.781,29.781,0,0,0,3.272-4.537A5.216,5.216,0,0,1,69.521,52.2a40.878,40.878,0,0,1-4.6,6.323A34.966,34.966,0,0,1,39.076,70Z" transform="translate(2.365 0.003)"/><path class="b" d="M4.645,27.465l64.13-13.231a5.8,5.8,0,0,1,6.86,4.521h0a5.8,5.8,0,0,1-4.505,6.86L6.985,38.846a5.8,5.8,0,0,1-6.86-4.521h0a5.8,5.8,0,0,1,4.521-6.86Z" transform="translate(-0.004 8.201)"/></g></g></svg>