<svg xmlns="http://www.w3.org/2000/svg" width="209.116" height="67.79" viewBox="0 0 209.116 67.79"><defs><style>.a{fill:#fff;}</style></defs><g transform="translate(0.003 0.003)"><g transform="translate(-0.003 -0.003)"><g transform="translate(89.543 13.176)"><path class="a" d="M88.46,9.29H61.385c-1.061,0-1.5.344-1.5,1.5V14.7c0,.957.508,1.286,1.5,1.286h9.628V47.159c0,1.121.613,1.674,1.5,1.674h4.754a1.5,1.5,0,0,0,1.5-1.5.419.419,0,0,0,0-.194V16h9.7c1.061,0,1.5-.329,1.5-1.286V10.8C90.075,9.634,89.581,9.29,88.46,9.29Z" transform="translate(-59.89 -8.572)"/><path class="a" d="M111.809,45.672,104.2,31.888c4.709-1.958,6.324-5.98,6.324-10.794s-1.5-8.731-5.7-10.465A34.7,34.7,0,0,0,93.465,9.283H89.219C84.57,9.283,83,11.406,83,15.667V47.182c0,1.181.568,1.674,1.5,1.674H89.13a1.5,1.5,0,0,0,1.63-1.346,1.211,1.211,0,0,0,0-.329v-13.8h6.07l7.326,14.367a2.033,2.033,0,0,0,1.958,1.286c1.181,0,5.1-.164,5.591-.284a.987.987,0,0,0,.852-1,4.589,4.589,0,0,0-.748-2.078ZM99.67,26.551a18.464,18.464,0,0,1-5.651.658H90.729V17.6c0-1.226.493-1.854,1.839-1.854h2.183a17.821,17.821,0,0,1,5.038.508c1.9.673,2.8,2.3,2.8,5.263a4.949,4.949,0,0,1-2.915,5.038Z" transform="translate(-48.45 -8.595)"/><path class="a" d="M113.294,9.25h-4.8c-1.061,0-1.5.673-1.5,1.689v36.24c0,1.181.553,1.674,1.5,1.674h4.694a1.5,1.5,0,0,0,1.5-1.5.419.419,0,0,0,0-.194V10.954C114.7,9.878,114.371,9.25,113.294,9.25Z" transform="translate(-36.569 -8.592)"/><path class="a" d="M134.353,8.81c-9.852,0-17.223,3.513-17.223,20.243,0,16.445,5.427,20.691,16.774,20.691,11.691,0,17.223-4.351,17.223-20.751C151.127,11.77,145.6,8.81,134.353,8.81Zm-.329,34.505c-5.831,0-8.97-2.123-8.97-14.263,0-11.407,3.244-13.814,9.06-13.814,6.548,0,8.97,2.063,8.97,13.874C143.084,41.417,139.72,43.315,134.024,43.315Z" transform="translate(-31.554 -8.81)"/></g><path class="a" d="M38.081,67.787A33.893,33.893,0,1,1,70.449,23.922a5.053,5.053,0,0,1-9.643,2.99h0a23.816,23.816,0,1,0-5.158,22.964,27.808,27.808,0,0,0,3.169-4.4,5.054,5.054,0,1,1,8.746,5.068,39.843,39.843,0,0,1-4.485,6.13,33.908,33.908,0,0,1-25,11.108Z" transform="translate(2.065 0.003)"/><path class="a" d="M4.487,27.383l62.1-12.812a5.621,5.621,0,0,1,6.668,4.366h0a5.606,5.606,0,0,1-4.351,6.638h0L6.759,38.4A5.606,5.606,0,0,1,.121,34.051h0a5.606,5.606,0,0,1,4.366-6.668Z" transform="translate(0.003 7.157)"/></g></g></svg>