<svg xmlns="http://www.w3.org/2000/svg" width="77.633" height="77.62" viewBox="0 0 77.633 77.62"><defs><style>.a{fill:#0038a8;}</style></defs><g transform="translate(0 0.037)"><g transform="translate(0 -0.037)"><path class="a" d="M0,67.849V63.086q0-2.432.008-4.864a2.9,2.9,0,0,0,.1-.811q.291-2.027.58-4.044c.245-1.621.507-3.232.677-4.859.284-1.615.521-3.238.692-4.864.293-1.613.519-3.236.7-4.864.29-1.62.513-3.242.7-4.87.328-1.612.39-3.269.829-4.864q.3-.645.615-1.288a7.608,7.608,0,0,1,7.2-3.526,14.785,14.785,0,0,0,2.523-.035h4.751c1.544.1,3.091.019,4.636.045.244,0,.259-.149.258-.333q-.015-2.245-.025-4.49c.007-1.514.01-3.027.027-4.541,0-.269-.09-.344-.35-.342-1.514.017-3.027.019-4.541.026H14.607l-3.025-.011-.115-.092-.186-.046A3.243,3.243,0,0,1,9.761,13Q9.729,11.348,9.7,9.7q.067-2.432,0-4.864c.008-.717.024-1.434.021-2.15a4.376,4.376,0,0,1,.129-1.194A3.024,3.024,0,0,1,11.362.061a5.6,5.6,0,0,1,1.256-.094H40.753a5.529,5.529,0,0,1,1.3.106,2.859,2.859,0,0,1,1.53,1.616c.176,1.043.035,2.1.107,3.142V9.7a29.284,29.284,0,0,1-.11,3.142,2.77,2.77,0,0,1-1.723,1.631c-1.013.155-2.027.024-3.04.1H33.956c-1.5-.007-2.995-.01-4.492-.024-.248,0-.362.057-.359.335.018,1.514.02,3.028.028,4.543q-.012,2.25-.026,4.5c0,.188.017.333.261.328,1.53-.029,3.064.06,4.594-.047h4.851q2.432.115,4.873,0h4.855q2.432.118,4.873,0H58.27q2.384.119,4.763,0c1.043.008,2.086.02,3.128.022a7.981,7.981,0,0,1,3.148.608,7.689,7.689,0,0,1,3.446,2.995l.577,1.222c.08.325.181.648.236.978.214,1.291.413,2.584.618,3.877.031.282.053.565.094.846l.608,4.018c.033.315.055.633.1.948.195,1.306.4,2.613.6,3.919.167,1.632.413,3.252.689,4.864l.679,4.852c.17,1.287.31,2.578.572,3.851.035.337.07.676.1,1.013q0,2.381.007,4.763v4.864c-.077,1.16.083,2.331-.106,3.486a7.132,7.132,0,0,1-4.593,5.76c-.062.025-.121.06-.18.09a10.943,10.943,0,0,1-3.295.4q-31.048-.015-62.1-.016A7.029,7.029,0,0,1,.673,73.317a6.6,6.6,0,0,1-.655-2.939C.015,69.538.006,68.693,0,67.849ZM69.209,33.907c-.094-.66-.176-1.317-.284-1.978-.141-.851-.193-1.747-1.027-2.289a1.324,1.324,0,0,0-.947-.5,28.882,28.882,0,0,0-3.918-.059q-2.385-.064-4.763,0H53.406q-2.432-.062-4.864,0H43.684q-2.432-.062-4.864,0H33.958q-2.432-.062-4.864,0H24.233q-2.432-.064-4.864,0h-4.76c-1.19-.007-2.379-.041-3.568-.012a2.083,2.083,0,0,0-1.413.573,1.925,1.925,0,0,0-.8,1.23c-.173,1-.342,2.01-.414,3.028-.287,1.614-.523,3.237-.7,4.864-.291,1.612-.513,3.235-.7,4.864-.285,1.614-.5,3.243-.709,4.864q-.35,2.432-.7,4.864-.321,2.242-.653,4.488c-.027.182-.066.34.2.335,1.528-.029,3.057.059,4.586-.046H14.6c1.59.075,3.18.078,4.769,0,1.621.044,3.237.041,4.855,0q2.432.112,4.872,0h4.854q2.432.112,4.872,0h4.856q2.432.112,4.872,0h4.856q2.432.116,4.872,0H63.03q2.432.112,4.873,0c1.433.008,2.867,0,4.3.033.405.008.528-.1.462-.507-.228-1.431-.427-2.866-.636-4.3L71.319,48.5q-.353-2.432-.7-4.864c-.2-1.628-.42-3.251-.709-4.864-.03-.282-.052-.565-.093-.846Q69.52,35.915,69.209,33.907Zm3.537,33.94c.006-1.481.008-2.961.022-4.442,0-.242-.043-.368-.328-.364-1.513.018-3.027.02-4.541.028q-2.432-.118-4.873,0H58.271q-2.432-.113-4.872,0H48.549q-2.432-.113-4.872,0H38.824q-2.432-.113-4.872,0H29.1q-2.432-.118-4.872,0H19.37q-2.384-.119-4.763,0H9.749c-1.543-.1-3.088-.018-4.631-.046-.254,0-.247.163-.246.339l.02,4.486c0,.891-.039,1.783-.006,2.671a2.342,2.342,0,0,0,2.187,2.184c.889.037,1.78,0,2.67,0H67.9c.889,0,1.781.041,2.667,0a2.364,2.364,0,0,0,2.192-2.238C72.782,69.594,72.751,68.721,72.746,67.847ZM33.949,9.653c1.513.007,3.027.01,4.541.029.284,0,.329-.119.328-.362q-.012-2.07,0-4.14c0-.243-.041-.361-.326-.358-1.513.018-3.027.017-4.541.022H19.369c-1.485-.006-2.969-.006-4.454-.022-.27,0-.346.09-.344.35q.015,2.075,0,4.155c0,.256.075.359.346.356,1.484-.018,2.968-.022,4.453-.03h4.856q2.432.06,4.864,0Z" transform="translate(0 0.037)"/><path class="a" d="M133.011,353.685a2.554,2.554,0,0,1-1.369-2.58c.017-.282-.013-.568-.022-.85.008-.3.041-.6.02-.9a2.519,2.519,0,0,1,1.247-2.443,8.532,8.532,0,0,1,4.763,0,2.613,2.613,0,0,1,1.255,2.483c-.012.284.023.57.036.854a7.981,7.981,0,0,0-.038.85,2.566,2.566,0,0,1-1.382,2.583A9.981,9.981,0,0,1,133.011,353.685Z" transform="translate(-118.282 -311.448)"/><path class="a" d="M281.072,346.905a2.619,2.619,0,0,1,1.227,2.426c-.012.3.009.6.016.9-.006.286-.033.572-.015.855a2.6,2.6,0,0,1-1.225,2.485,8.34,8.34,0,0,1-4.857-.009,2.558,2.558,0,0,1-1.2-2.128c-.011-.4-.015-.8-.023-1.2s.011-.811.022-1.216a2.526,2.526,0,0,1,1.206-2.1A8.254,8.254,0,0,1,281.072,346.905Z" transform="translate(-247.123 -311.425)"/><path class="a" d="M420.07,346.873a8.217,8.217,0,0,1,4.845.025,2.656,2.656,0,0,1,1.216,2.4c0,.3.013.608.02.906-.007.267-.03.533-.017.8a2.706,2.706,0,0,1-1.208,2.534,8.853,8.853,0,0,1-4.722.094,2.583,2.583,0,0,1-1.36-2.615c.018-.268-.008-.538-.014-.811.006-.3.035-.608.014-.9A2.543,2.543,0,0,1,420.07,346.873Z" transform="translate(-376.386 -311.401)"/><path class="a" d="M569.561,350.588c-.008.283-.039.568-.021.849a2.571,2.571,0,0,1-1.245,2.5,8.584,8.584,0,0,1-4.763.01,2.556,2.556,0,0,1-1.255-2.513,8.255,8.255,0,0,0-.036-.85,2.893,2.893,0,0,0,.036-.948,2.49,2.49,0,0,1,1.169-2.345,3.28,3.28,0,0,1,1.761-.342,7.813,7.813,0,0,1,3.087.292,2.591,2.591,0,0,1,1.245,2.432C569.524,349.981,569.553,350.285,569.561,350.588Z" transform="translate(-505.262 -311.779)"/><path class="a" d="M206.8,450.048a7.345,7.345,0,0,1-2.128-.21,2.6,2.6,0,0,1-1.494-2.235c.01-.405-.013-.806-.021-1.209.008-.405.015-.811.026-1.211a2.425,2.425,0,0,1,1.9-2.373,13.033,13.033,0,0,1,1.711-.08c.405,0,.811.013,1.216.016a2.409,2.409,0,0,1,2.441,2.336c.022.438.023.877.034,1.317-.008.352-.02.7-.023,1.055a2.456,2.456,0,0,1-2.509,2.572C207.573,450.038,207.188,450.04,206.8,450.048Z" transform="translate(-182.572 -397.86)"/><path class="a" d="M354.261,446.4c-.006.336-.016.673-.018,1.013a2.48,2.48,0,0,1-2.584,2.624c-.353.009-.709.014-1.059.021-.535-.067-1.076.025-1.612-.076a2.411,2.411,0,0,1-2.027-2.363c-.011-.405-.014-.811-.02-1.216.006-.386.015-.772.018-1.158a2.437,2.437,0,0,1,2.485-2.49c.386,0,.772-.011,1.158-.016.405,0,.8.012,1.207.016a2.42,2.42,0,0,1,2.362,1.943C354.293,445.265,354.195,445.836,354.261,446.4Z" transform="translate(-311.781 -397.869)"/><path class="a" d="M494.28,450.038c-.551-.066-1.108.026-1.66-.078a2.385,2.385,0,0,1-2-2.317c-.011-.421-.018-.84-.027-1.26.008-.419.017-.837.024-1.256a2.407,2.407,0,0,1,2.408-2.391l1.256-.017,1.21.017a2.378,2.378,0,0,1,2.339,2.089c.062.516.06,1.039.087,1.558-.008.371-.011.742-.027,1.115a2.477,2.477,0,0,1-2.548,2.52C494.989,450.027,494.634,450.031,494.28,450.038Z" transform="translate(-440.873 -397.851)"/></g></g></svg>