<svg xmlns="http://www.w3.org/2000/svg" width="66.593" height="78.485" viewBox="0 0 66.593 78.485"><defs><style>.a{fill:#3e4098;}</style></defs><g transform="translate(-4 -1.5)"><path class="a" d="M68.81,15.532A104.146,104.146,0,0,1,53.065,9.943,107.026,107.026,0,0,1,38.6,2.309L37.3,1.5l-1.284.832a107.025,107.025,0,0,1-14.46,7.634A104.147,104.147,0,0,1,5.784,15.532L4,15.984V35.819C4,67.665,36.179,79.581,36.488,79.7l.809.285.809-.285c.333,0,32.488-12.011,32.488-43.88V15.984ZM65.837,35.819c0,26.162-23.783,37.126-28.54,39.076-4.757-1.95-28.54-12.938-28.54-39.076V19.67a113.068,113.068,0,0,0,14.7-5.351A114.708,114.708,0,0,0,37.3,7.184a114.708,114.708,0,0,0,13.842,7.135,113.068,113.068,0,0,0,14.7,5.351Z" transform="translate(0 0)"/><path class="a" d="M13.155,23.519A2.378,2.378,0,0,0,9.8,26.873l14.27,14.27,26-25a2.388,2.388,0,0,0-3.33-3.425L24.214,34.579Z" transform="translate(7.208 14.536)"/></g></svg>