<svg xmlns="http://www.w3.org/2000/svg" width="80.282" height="69.438" viewBox="0 0 80.282 69.438"><defs><style>.a{fill:#3e4098;}</style></defs><g transform="translate(-1.125 -3.375)"><path class="a" d="M80.239,15.235A3.979,3.979,0,0,0,77.4,14.058H74.57V7.382a4.01,4.01,0,0,0-4.007-4.007H12.914A11.789,11.789,0,0,0,1.125,15.164v45.86A11.789,11.789,0,0,0,12.914,72.813H77.243A4.014,4.014,0,0,0,81.25,68.82l.157-50.743a3.979,3.979,0,0,0-1.168-2.842ZM75.913,67.471h-63a6.448,6.448,0,0,1-6.448-6.448V15.164a6.448,6.448,0,0,1,6.448-6.448H69.228v5.341H13.144V19.4H76.063Z" transform="translate(0 0)"/><path class="a" d="M27.563,18.563H32.9V23.9H27.563Z" transform="translate(36.324 20.867)"/></g></svg>