<svg xmlns="http://www.w3.org/2000/svg" width="77.381" height="67.708" viewBox="0 0 77.381 67.708"><defs><style>.a,.b{fill:#3e4098;}.a{fill-rule:evenodd;}</style></defs><g transform="translate(0 -2.25)"><path class="a" d="M67.708,7.086H9.673a4.836,4.836,0,0,0-4.836,4.836V60.286a4.836,4.836,0,0,0,4.836,4.836H67.708a4.836,4.836,0,0,0,4.836-4.836V11.923A4.836,4.836,0,0,0,67.708,7.086ZM9.673,2.25A9.673,9.673,0,0,0,0,11.923V60.286a9.673,9.673,0,0,0,9.673,9.673H67.708a9.673,9.673,0,0,0,9.673-9.673V11.923A9.673,9.673,0,0,0,67.708,2.25Z" transform="translate(0 0)"/><path class="a" d="M69.958,16.086H2.25V11.25H69.958Z" transform="translate(2.586 10.345)"/><path class="b" d="M9.336,9.168A2.418,2.418,0,1,1,6.918,6.75,2.418,2.418,0,0,1,9.336,9.168Zm7.254,0A2.418,2.418,0,1,1,14.173,6.75,2.418,2.418,0,0,1,16.591,9.168Zm7.254,0A2.418,2.418,0,1,1,21.427,6.75,2.418,2.418,0,0,1,23.845,9.168Z" transform="translate(5.173 5.173)"/></g></svg>