<svg xmlns="http://www.w3.org/2000/svg" width="370.481" height="71.748" viewBox="0 0 370.481 71.748"><defs><style>.a{fill:#a341b6;}.b{fill:#4683b6;}.c{fill:#316487;}.d{fill:#fff;}</style></defs><path class="a" d="M306.78,27.09h40.179v7.155L321.016,68.425H347.61v9.26H306.13V70.521L332.073,36.34H306.78Z" transform="translate(-203.486 -18.008)"/><path class="a" d="M453.935,22.67a5.488,5.488,0,0,1,1.676,4.084,5.606,5.606,0,0,1-1.676,4.12,5.679,5.679,0,0,1-4.191,1.676,5.794,5.794,0,0,1-4.228-1.676,5.525,5.525,0,0,1-1.7-4.12,5.421,5.421,0,0,1,1.7-4.084,5.881,5.881,0,0,1,4.228-1.626,5.75,5.75,0,0,1,4.191,1.626Zm-9.31,13.84h10.192V73.665H444.624Z" transform="translate(-295.009 -13.987)"/><path class="a" d="M531.486,94.934v8.61h-5.2q-7.01,0-6.866-6.068a14.081,14.081,0,0,1-4.969,4.841,14.33,14.33,0,0,1-7.155,1.676q-6.216,0-10.011-2.856a9.476,9.476,0,0,1-3.792-8.046,10.691,10.691,0,0,1,4.358-9.143q4.359-3.219,12.667-3.2h7.376V78.938a4.838,4.838,0,0,0-1.878-4.023,7.982,7.982,0,0,0-5.059-1.482,8.062,8.062,0,0,0-4.623,1.227,4.9,4.9,0,0,0-2.169,3.326h-9.83a11.483,11.483,0,0,1,5.059-8.854q4.553-3.155,12.07-3.141,7.876,0,12.177,3.467t4.3,10.058V92.59a2.43,2.43,0,0,0,.58,1.878,2.687,2.687,0,0,0,1.807.506ZM517.9,87.491h-7.443a8.4,8.4,0,0,0-4.949,1.264,4.141,4.141,0,0,0-1.787,3.577A3.745,3.745,0,0,0,505.2,95.44a6.382,6.382,0,0,0,4.023,1.157,8.573,8.573,0,0,0,6.286-2.276,8.407,8.407,0,0,0,2.384-6.105Z" transform="translate(-328.03 -43.865)"/><path class="b" d="M640.061,27.37q8.817,0,13.659,3.467a11.366,11.366,0,0,1,4.841,9.82,10.916,10.916,0,0,1-2.6,7.587A12.571,12.571,0,0,1,648.584,52q5.636.724,8.717,3.614t3.071,8.093a12.331,12.331,0,0,1-5.056,10.44q-5.056,3.792-14.306,3.805H620.84V27.37Zm-8.382,20.814h8.66a8.044,8.044,0,0,0,5.418-1.676,5.613,5.613,0,0,0,1.958-4.469,5.583,5.583,0,0,0-1.951-4.479,8.106,8.106,0,0,0-5.425-1.663h-8.66Zm0,21.172h9.388A9.561,9.561,0,0,0,647.1,67.68a5.556,5.556,0,0,0,2.132-4.623,5.754,5.754,0,0,0-2.169-4.808,9.481,9.481,0,0,0-6-1.7h-9.388Z" transform="translate(-412.683 -18.194)"/><path class="b" d="M765.455,22.951a5.488,5.488,0,0,1,1.676,4.084,5.606,5.606,0,0,1-1.676,4.12,5.7,5.7,0,0,1-4.194,1.676,5.8,5.8,0,0,1-4.224-1.676,5.526,5.526,0,0,1-1.7-4.12,5.422,5.422,0,0,1,1.7-4.084,5.867,5.867,0,0,1,4.221-1.626,5.77,5.77,0,0,1,4.2,1.626Zm-9.324,13.84H766.32V73.935H756.131Z" transform="translate(-502.086 -14.173)"/><path class="b" d="M809.23,27.37h10.189V77.956H809.23Z" transform="translate(-537.912 -18.194)"/><path class="b" d="M860.74,27.37h10.189V77.956H860.74Z" transform="translate(-572.152 -18.194)"/><path class="b" d="M910.347,75.165a16.478,16.478,0,0,1,6.578-6.648,19.827,19.827,0,0,1,9.79-2.347,21.481,21.481,0,0,1,9.937,2.2,16.428,16.428,0,0,1,6.722,6.216,19.552,19.552,0,0,1,2.2,12.9H918.621v.288a10.167,10.167,0,0,0,2.6,6.37,8.1,8.1,0,0,0,6.142,2.313,9.281,9.281,0,0,0,5.167-1.341,6.31,6.31,0,0,0,2.712-3.936H945.3a14.6,14.6,0,0,1-2.82,6.648,15.23,15.23,0,0,1-5.924,4.66,19.938,19.938,0,0,1-8.456,1.7,23.276,23.276,0,0,1-10.729-2.31,16.264,16.264,0,0,1-6.937-6.615A19.93,19.93,0,0,1,908,85.254,20.756,20.756,0,0,1,910.347,75.165Zm25.33,5.673a8,8,0,0,0-2.8-5.237,8.839,8.839,0,0,0-5.743-1.844,8.4,8.4,0,0,0-5.6,1.914,7.822,7.822,0,0,0-2.709,5.167Z" transform="translate(-603.567 -43.985)"/><path class="b" d="M1060.157,67.46v9.25h-4.047q-4.335,0-6.37,2.6a11.1,11.1,0,0,0-2.012,7.081V104.6H1037.54V67.46h9.25l.939,5.565a11.578,11.578,0,0,1,4.12-4.157,13.188,13.188,0,0,1,6.575-1.408Z" transform="translate(-689.676 -44.843)"/><path class="c" d="M23.625,31.9l-6.561,3.561L7.991,30.3l-8.006,4.68c-.05-3.232-.05-22.6,6.94-29.5A7.711,7.711,0,0,1,12.96,3.112C20.859,3.508,23.142,15.6,23.625,31.9Z" transform="translate(0.023 -2.06)"/><path class="c" d="M112.79,36.932H72.128L63.683,31.8l-1.341.731c-.151-4.248-.436-8.2-.912-11.765-.711-5.321-2.065-11.915-5.7-15.4,20.576,10.393,45.724,1.113,45.724,1.113l10.42,19.888Z" transform="translate(-37.038 -3.563)"/><path class="b" d="M111.577,69.981l-1.126-1.945-5.995,3.711-6.035-3.54-6.075,3.52-5.9-3.551L80.36,71.7l-5.944-3.547-6.209,3.524L62.171,68.13,56.532,71.2c0-5.364.127-10.9.231-16.254.184-9.217.359-18.1.084-25.987A110.665,110.665,0,0,0,55.972,17.2c-.711-5.321-2.065-11.916-5.7-15.4A8.573,8.573,0,0,0,47.52,0L98.052.335a7.631,7.631,0,0,1,5.807,2.789C114.577,14.856,112.351,58.645,111.577,69.981Z" transform="translate(-31.58 0)"/><path class="d" d="M151.646,84.359l-9.411,3.487a9.079,9.079,0,0,1-6.31,0l-4.184-1.582a1.978,1.978,0,0,1,.02-3.732L139.08,80Z" transform="translate(-86.693 -53.178)"/><path class="b" d="M142.577,78.658l-.959-.335-.962-.335-3.587-1.247L129.421,79.4a2.964,2.964,0,0,0-2.012,2.588v.2a2.957,2.957,0,0,0,.949,2.219,3.061,3.061,0,0,0,1.006.62l4.157,1.576h.03a9.932,9.932,0,0,0,1.549.436h.03a10.473,10.473,0,0,0,.54.091h.054c.144.02.288.037.436.05l.412.027h.483a5.523,5.523,0,0,0,.671-.027,1.28,1.28,0,0,0,.315-.027c.107-.027.221-.02.335-.037h0a1.71,1.71,0,0,0,.335-.054c.171-.027.335-.06.526-.1s.288-.067.433-.107.315-.087.473-.141h.027c.121-.037.241-.08.359-.124l1.318-.489,3.6-1.341,1.059-.392,6.055-2.243ZM141.5,84.116l-.741.275-.617.228-.272.1a7.745,7.745,0,0,1-.862.265c-.174.044-.335.08-.526.114a2.717,2.717,0,0,0-.288.044l-.218.027c-.161.02-.318.034-.479.04a7.231,7.231,0,0,1-1.143,0h-.034l-.272-.03-.191-.027h-.03a7.865,7.865,0,0,1-1.562-.4h0l-.852-.335-3.323-1.257a.982.982,0,0,1-.671-.939.949.949,0,0,1,.671-.9l6.987-2.431,2.6.9.962.335.959.335,5.029,1.757Z" transform="translate(-84.685 -51.011)"/><path class="d" d="M144.489,39.746l-6.27,11.734c-1.123,2.441,2.052,2.927,2.052,2.927l-1.74.637a9.17,9.17,0,0,1-4.131.335,18.209,18.209,0,0,1-3.53-1.106l-2.092-.774a5.12,5.12,0,0,1-3.017-6.588,5.61,5.61,0,0,1,.335-.691l6.99-12.63a6.035,6.035,0,0,1,7.269-2.779l.758.262a6.132,6.132,0,0,1,3.752,7.818A5.7,5.7,0,0,1,144.489,39.746Z" transform="translate(-83.375 -20.257)"/><path class="b" d="M143.734,32.228a7.118,7.118,0,0,0-4.281-4.134l-.389-.144-.406-.141a6.034,6.034,0,0,0-.8-.225,7.041,7.041,0,0,0-7.661,3.453l-1.264,2.276-.493.888-.493.888-4.758,8.616a6.119,6.119,0,0,0,3.232,8.717l2.092.778c.2.07.392.148.587.221.365.137.738.278,1.116.409h.03a12.5,12.5,0,0,0,1.549.436h.03a2.117,2.117,0,0,1,.278.05l.134.023h.181c.124.02.272.037.436.05l.412.027h.469c.218,0,.449,0,.694-.023a1.281,1.281,0,0,0,.315-.027c.107-.027.221-.02.335-.037h0a1.71,1.71,0,0,0,.335-.054c.171-.027.335-.06.526-.1s.288-.067.432-.107.315-.087.473-.141h.027l1.676-.614,3.638-1.341h-.034l-2.012-.335-.382-.06-1.365-.225a1.465,1.465,0,0,1-.235-.05,1.961,1.961,0,0,1-1.157-.671.905.905,0,0,1,.08-.761l1.19-2.23.479-.915.479-.9,4.107-7.681c.064-.117.121-.235.178-.355h0a6.418,6.418,0,0,0,.365-.972h0A7.091,7.091,0,0,0,143.734,32.228ZM136.858,46.1l-.5.9L135.3,48.975l-.027.054a2.769,2.769,0,0,0-.034,2.578h0a2.6,2.6,0,0,0,.432.59h0c-.181.044-.355.08-.53.111a2.713,2.713,0,0,0-.288.044l-.218.027c-.161.02-.318.034-.479.04s-.3,0-.443,0h-.248a2.926,2.926,0,0,1-.453-.023h0l-.272-.03-.191-.027h-.03a9.387,9.387,0,0,1-1.562-.4h0c-.3-.1-.587-.208-.885-.335l-.238-.091-.6-.228-2.092-.774a4.1,4.1,0,0,1-2.447-2.441c-.037-.1-.074-.2-.1-.308a4.094,4.094,0,0,1,.365-3.091l4.895-8.834.469-.888.493-.888,1.116-2.012a5.029,5.029,0,0,1,5.4-2.5,5.557,5.557,0,0,1,.654.181l.386.137h.017l.335.124a5.076,5.076,0,0,1,2.716,2.213,4.585,4.585,0,0,1,.382.778c.06.154.111.312.158.469a5.106,5.106,0,0,1-.315,3.628c-.03.064-.06.127-.094.188L137.337,45.2Z" transform="translate(-81.367 -18.227)"/><path class="d" d="M140.087,37.706l-.365.969c1.6-3.973-1.167-4.945-3.721-4l-5.364,2.662L118.07,32.683l7.376-2.558a15.872,15.872,0,0,1,10.424,0l.573.2A6.1,6.1,0,0,1,140.087,37.706Z" transform="translate(-78.477 -19.44)"/><path class="b" d="M134.731,30.908a6.645,6.645,0,0,0-3.879-3.547l-.2-.067-.376-.144c-.4-.137-.8-.262-1.207-.365a16.894,16.894,0,0,0-9.88.365L109.2,30.64l9.944,3.688.956.355.952.335,3.745,1.388,5.7-2.833a2.564,2.564,0,0,1,2.5.111c.429.446.379,1.214,0,2.28l-.1.278-.02.05.935.365.939.365h0c.05-.124.094-.241.137-.362l.228-.61h0A6.834,6.834,0,0,0,134.731,30.908Zm-12.693,2.347-.956-.355-.952-.335-4.985-1.847,4.717-1.656a14.551,14.551,0,0,1,3.084-.711,13.9,13.9,0,0,1,1.975-.107,14.688,14.688,0,0,1,3.658.5c.335.091.7.2,1.039.319h0l.573.2a4.613,4.613,0,0,1,2.538,2.146h-.044a5.589,5.589,0,0,0-2.934.335l-5.073,2.515Z" transform="translate(-72.581 -17.427)"/><rect class="d" width="1.23" height="13.93" transform="translate(30.326 44.775)"/><rect class="d" width="3.128" height="13.93" transform="translate(33.035 44.775)"/><rect class="d" width="3.128" height="13.93" transform="translate(45.886 44.775)"/><rect class="d" width="5.163" height="13.93" transform="translate(58.291 44.775)"/><rect class="d" width="1.23" height="13.93" transform="translate(37.658 44.775)"/><rect class="d" width="1.23" height="13.93" transform="translate(74.26 44.775)"/><rect class="d" width="1.23" height="13.93" transform="translate(55.703 44.775)"/><rect class="d" width="2.256" height="13.93" transform="translate(40.23 44.775)"/><rect class="d" width="1.23" height="13.93" transform="translate(64.691 44.775)"/><rect class="d" width="2.256" height="13.93" transform="translate(67.263 44.775)"/><rect class="d" width="2.256" height="13.93" transform="translate(50.355 44.775)"/><rect class="d" width="0.768" height="13.93" transform="translate(43.673 44.775)"/><rect class="d" width="0.332" height="13.93" transform="translate(53.899 44.681)"/><rect class="d" width="0.332" height="13.93" transform="translate(70.793 44.681)"/><rect class="d" width="0.332" height="13.93" transform="translate(72.61 44.681)"/></svg>