<svg xmlns="http://www.w3.org/2000/svg" width="374.634" height="75.647" viewBox="0 0 374.634 75.647"><defs><style>.a{fill:#a341b6;}.b{fill:#ee2f24;}.c{fill:#fff;}.d{fill:none;}</style></defs><path class="a" d="M319.247,33.8h41.225v7.34L333.859,76.212h27.277V85.7H318.58v-7.34L345.21,43.29H319.247Z" transform="translate(-208.995 -22.173)"/><path class="a" d="M466.694,29.432a5.631,5.631,0,0,1,1.72,4.19,5.745,5.745,0,0,1-1.72,4.224,5.827,5.827,0,0,1-4.3,1.692,5.937,5.937,0,0,1-4.338-1.72,5.659,5.659,0,0,1-1.744-4.224,5.538,5.538,0,0,1,1.744-4.19,6.03,6.03,0,0,1,4.338-1.641,5.909,5.909,0,0,1,4.3,1.668Zm-9.562,14.2h10.453V81.74H457.131Z" transform="translate(-299.352 -18.211)"/><path class="a" d="M544.89,102.339v8.823h-5.339q-7.192,0-7.045-6.229a14.4,14.4,0,0,1-5.115,4.974,14.7,14.7,0,0,1-7.34,1.72q-6.377,0-10.268-2.927a9.737,9.737,0,0,1-3.894-8.255,10.959,10.959,0,0,1,4.472-9.377q4.472-3.3,13.012-3.3h7.567V85.914a4.974,4.974,0,0,0-1.926-4.128,9.584,9.584,0,0,0-9.934-.258,4.994,4.994,0,0,0-2.225,3.409H506.781a11.761,11.761,0,0,1,5.187-9.081q4.671-3.233,12.383-3.226,8.08,0,12.493,3.56t4.413,10.319V99.924a2.5,2.5,0,0,0,.592,1.93,2.756,2.756,0,0,0,1.854.519ZM530.948,94.7h-7.636a8.622,8.622,0,0,0-5.077,1.3,4.238,4.238,0,0,0-1.816,3.67,3.818,3.818,0,0,0,1.52,3.189,6.53,6.53,0,0,0,4.128,1.187,8.8,8.8,0,0,0,6.449-2.336,8.562,8.562,0,0,0,2.432-6.25Z" transform="translate(-331.876 -47.647)"/><path class="b" d="M630.335,45.283a21.918,21.918,0,0,1,8.823-9.232A26.968,26.968,0,0,1,652.69,32.79a24.338,24.338,0,0,1,10.9,2.373,20.046,20.046,0,0,1,7.788,6.673,21.134,21.134,0,0,1,3.557,9.944H663.811a12.123,12.123,0,0,0-4.042-7.024,11.641,11.641,0,0,0-7.674-2.559,11.812,11.812,0,0,0-9.858,4.671q-3.625,4.671-3.636,12.307,0,7.567,3.636,12.273a11.8,11.8,0,0,0,9.858,4.706,11.6,11.6,0,0,0,7.674-2.556,12.128,12.128,0,0,0,4.042-7.007h11.121a21.131,21.131,0,0,1-3.557,9.955,20.047,20.047,0,0,1-7.788,6.673,24.325,24.325,0,0,1-10.9,2.373,26.945,26.945,0,0,1-13.532-3.264,21.89,21.89,0,0,1-8.823-9.229,29.938,29.938,0,0,1-3.075-13.9A30,30,0,0,1,630.335,45.283Z" transform="translate(-411.497 -21.511)"/><path class="b" d="M816.92,102.685v8.833h-5.339q-7.192,0-7.045-6.229a14.448,14.448,0,0,1-5.115,4.967,14.678,14.678,0,0,1-7.34,1.72q-6.377,0-10.268-2.927a9.737,9.737,0,0,1-3.894-8.255,10.968,10.968,0,0,1,4.472-9.38q4.472-3.3,13.012-3.285h7.567V86.274a4.973,4.973,0,0,0-1.93-4.128,9.584,9.584,0,0,0-9.934-.258,5.019,5.019,0,0,0-2.225,3.409H778.811A11.758,11.758,0,0,1,784,76.216q4.675-3.233,12.383-3.226,8.08,0,12.493,3.56t4.413,10.319v13.415a2.5,2.5,0,0,0,.592,1.93,2.781,2.781,0,0,0,1.854.519Zm-13.938-7.64h-7.636a8.592,8.592,0,0,0-5.081,1.3,4.238,4.238,0,0,0-1.816,3.67,3.815,3.815,0,0,0,1.52,3.185,6.5,6.5,0,0,0,4.128,1.187,8.8,8.8,0,0,0,6.45-2.336A8.637,8.637,0,0,0,803,95.789Z" transform="translate(-510.334 -47.883)"/><path class="b" d="M926.358,74.17v9.49h-4.152q-4.448,0-6.535,2.669a11.4,11.4,0,0,0-2.064,7.268v18.695H903.15V74.17h9.49l.963,5.71a11.813,11.813,0,0,1,4.228-4.262,13.561,13.561,0,0,1,6.749-1.448Z" transform="translate(-592.489 -48.657)"/><path class="b" d="M978.638,82.119a16.875,16.875,0,0,1,6.745-6.821A20.348,20.348,0,0,1,995.43,72.89a22.025,22.025,0,0,1,10.2,2.263,16.878,16.878,0,0,1,6.879,6.374,19.015,19.015,0,0,1,2.559,9.676,19.606,19.606,0,0,1-.3,3.56H987.113v.3a10.384,10.384,0,0,0,2.669,6.535,8.351,8.351,0,0,0,6.3,2.373,9.544,9.544,0,0,0,5.3-1.376,6.511,6.511,0,0,0,2.779-4.042h10.319a15.012,15.012,0,0,1-2.889,6.821,15.663,15.663,0,0,1-6.082,4.781,20.466,20.466,0,0,1-8.675,1.744,23.851,23.851,0,0,1-11.007-2.373,16.7,16.7,0,0,1-7.117-6.783,20.572,20.572,0,0,1-2.484-10.268A21.227,21.227,0,0,1,978.638,82.119Zm25.987,5.82a8.168,8.168,0,0,0-2.855-5.376,9.082,9.082,0,0,0-5.9-1.892,8.6,8.6,0,0,0-5.744,1.968,8.046,8.046,0,0,0-2.783,5.3Z" transform="translate(-640.431 -47.817)"/><path class="b" d="M128.35,37.178l1.187-1.328c.915.44,1.82.912,2.707,1.407A16.211,16.211,0,0,0,128.35,37.178Z" transform="translate(-84.199 -23.518)"/><path class="b" d="M58.45,114.352a32.13,32.13,0,0,0,1.613,5.755L51,111.927l1.909-2.473,5.576-7.223a33.175,33.175,0,0,0-.564,5.682A32.575,32.575,0,0,0,58.45,114.352Z" transform="translate(-33.456 -67.065)"/><path class="b" d="M143.432,20.126a50.564,50.564,0,0,0-8.162-5.019l7.911-8.857.344.158,13.59,6.154a12.459,12.459,0,0,0-4.864,2.009,30.673,30.673,0,0,0-7.045,6.91Z" transform="translate(-88.739 -4.1)"/><path class="b" d="M123.807,31.215l-6.333,16.9-.186.5-2.869,7.66h0l-.034.089h0l-.1.255h0l-1.176,3.144-2.569,6.852h0l-.048.127-.6,1.593h0l-.726,1.923h0l-.406,1.08-.378,1.032-1.252,3.34L96.13,79.691,89.653,82.04l-1.655.6-8.3-7.485h0a31.147,31.147,0,0,1-3.615-15.025,31.578,31.578,0,0,1,.953-7.309c.1-.42.217-.832.344-1.242L92.219,34.961a14.4,14.4,0,0,1,3.474-.423,14.013,14.013,0,0,1,4.042.588c3.01.915,4.926,2.69,5.263,3.969l.5,1.888h0l.722-1.125.323-.5s.151-.23.406-.592a31.216,31.216,0,0,1,7.189-7.468,9.793,9.793,0,0,1,5.383-1.968,5.814,5.814,0,0,1,4.286,1.886Z" transform="translate(-49.909 -19.241)"/><path class="b" d="M89.294,6.789C87.6,6.424,85.779,6.1,83.88,5.86,86.233,2.682,90.887-.232,100.047.013a24.622,24.622,0,0,1,9.421,2.126l.344.158a18.534,18.534,0,0,1,8.727,8.156,30.674,30.674,0,0,0-7.045,6.91l-1.775-1.338a50.564,50.564,0,0,0-8.162-5.019,51.073,51.073,0,0,0-11.7-4.083Z" transform="translate(-55.026 0.002)"/><path class="b" d="M56.29,47.388c-.169.688-.316,1.341-.44,2.019a33.176,33.176,0,0,0-.564,5.682,32.73,32.73,0,0,0,.54,6.425,13.738,13.738,0,0,1-5.552-4.9,18.513,18.513,0,0,1-2.064-4.472c-.774-2.377.519-4.451,1.142-6.938,1.269-5.067-5.263-11.6-.715-15.912,9.487-8.314,7.619-5.576,8.685-1.593A12.307,12.307,0,0,1,58.7,21.69,60.274,60.274,0,0,1,64.755,22.7l.574.127a49.532,49.532,0,0,1,10.842,3.736c.915.44,1.82.912,2.707,1.407a16.212,16.212,0,0,0-3.894-.079,17.9,17.9,0,0,0-10.12,4.633A30.235,30.235,0,0,0,56.29,47.388Z" transform="translate(-30.834 -14.229)"/><path class="b" d="M115.393,43.1a40.757,40.757,0,0,1-3.024,12.3v.045c-.375.953-.771,1.909-1.187,2.862q-.815,1.857-1.72,3.681c-.23.461-.461.918-.688,1.376s-.461.9-.688,1.341h0c-.777,1.472-1.572,2.9-2.367,4.262-1.032,1.789-2.064,3.457-3.041,4.957l-1.032,1.527h0l-5.5,7.99-4.128,6.03-2.332-3.681L85.6,79.405c-.6-5.782-4.537-6.535-8.764-8.255a30.958,30.958,0,0,1-.753-7.272,31.609,31.609,0,0,1,.953-7.313c.1-.42.217-.832.344-1.242a28.347,28.347,0,0,1,7.726-12.775,16.814,16.814,0,0,1,7.113-3.835,14.4,14.4,0,0,1,3.474-.423,14.014,14.014,0,0,1,4.042.588c3.01.915,4.926,2.69,5.263,3.969l.5,1.888h0l.722-1.125.323-.5s.151-.23.406-.592a31.216,31.216,0,0,1,7.189-7.468A19.225,19.225,0,0,1,115.393,43.1Z" transform="translate(-49.909 -22.993)"/><path class="b" d="M42.446,84.563l5.366,2.876a132.468,132.468,0,0,1-20.356-8.345C14.825,72.524-.193,61.283,0,45.006c0-9.022,2.518-15.6,7.426-19.551,4.269-3.433,9.855-4.565,15.372-4.565a45.857,45.857,0,0,1,5.063.289,60.3,60.3,0,0,1,6.061.994l.574.127a49.533,49.533,0,0,1,10.839,3.736c.915.44,1.82.912,2.707,1.407a16.211,16.211,0,0,0-3.894-.079A17.9,17.9,0,0,0,34.026,32a30.235,30.235,0,0,0-8.575,14.867c-.169.688-.316,1.342-.44,2.019a33.176,33.176,0,0,0-.564,5.682A32.733,32.733,0,0,0,26.6,66.745h0A33.912,33.912,0,0,0,42.446,84.563Z" transform="translate(0.005 -13.704)"/><path class="b" d="M110.086,79.91l-.344,1.775V81.8l-4.086,21.935h0l-.729,1.084-.344-.179L93.142,98.532A32.4,32.4,0,0,1,79.669,85.086h0a31.147,31.147,0,0,1-3.615-15.025,31.749,31.749,0,0,1,.96-7.309c.1-.42.217-.832.344-1.242a28.347,28.347,0,0,1,7.726-12.775A16.813,16.813,0,0,1,92.2,44.893a14.4,14.4,0,0,1,3.474-.423,14.014,14.014,0,0,1,4.042.588c3.01.915,4.926,2.69,5.263,3.969l.5,1.888h0l.722-1.125,1.3,10.13.034.285.719,5.593.482,3.76.857,6.677h0l.024.179.244,1.885h0Z" transform="translate(-49.889 -29.173)"/><path class="c" d="M164.951,84.728l-.021-.151h0l-.21-1.651h0l-.867-6.745-.344-2.786-.688-5.246v-.1h0L161.363,56.68c-.255.344-.4.578-.406.592l-.323.5-.722,1.125,1.152,8.943.069.537.746,5.827.6,4.7h0l.647,5.191h0l.186,1.438.3,2.36-.062.344h0l-.22,1.176-.138.736h0l-4.2,22.5.344.179.705-1.09h0l1.228-1.9,3.784-20.387.258-1.376.024-.134Z" transform="translate(-104.306 -37.183)"/><path class="b" d="M199.826,88.33l6.257,1.933v10.66l-.482-.23L199.75,97.92Z" transform="translate(-131.04 -57.946)"/><path class="b" d="M222.995,92.632l.9-.272c-.031.237-.062.471-.1.709s-.065.475-.1.712a54.438,54.438,0,0,1-1.4,6.419V92.845l.392-.12h0Z" transform="translate(-145.833 -60.59)"/><path class="b" d="M211.759,80.1l.846.237h0v.148c0,.255-.031.506-.052.76a1.271,1.271,0,0,1-.021.279l-.041.478a4.47,4.47,0,0,1-.045.482l-.887.268-1.682.5h0l-5.308-1.634,5.572-1.992Z" transform="translate(-134.202 -52.239)"/><path class="b" d="M127.006,38.459l-1.926.688v6.236l-7.626,2.724-.186.5-.093,11.5,6.783,3.213a55.274,55.274,0,0,1-5.2,10.219L106.867,91.9l-1.228,1.9h0l-.712,1.1-.344-.179L93.142,88.6A32.4,32.4,0,0,1,79.669,75.154h0a31.147,31.147,0,0,1-3.615-15.025,31.749,31.749,0,0,1,.96-7.309c.1-.42.217-.832.344-1.242A28.347,28.347,0,0,1,85.083,38.8,16.813,16.813,0,0,1,92.2,34.961a14.4,14.4,0,0,1,3.474-.423,14.013,14.013,0,0,1,4.042.588c3.01.915,4.926,2.69,5.263,3.969l.5,1.888h0l.722-1.125.323-.5s.151-.23.406-.592a31.216,31.216,0,0,1,7.189-7.468A9.793,9.793,0,0,1,119.5,29.33a5.824,5.824,0,0,1,4.276,1.9l.069.055A13.967,13.967,0,0,1,127.006,38.459Z" transform="translate(-49.889 -19.241)"/><path class="b" d="M224.627,65.99v1.3l-.853-.241-1-.282V62l.829.141.884.148c.021.23.041.464.058.688,0,.158.024.313.031.475s.021.32.028.482l.021.492v.568C224.624,65.33,224.627,65.656,224.627,65.99Z" transform="translate(-146.141 -40.673)"/><path class="c" d="M219.763,66.121c-.048.887-.12,1.775-.21,2.655l.887-.268c0-.158.031-.32.045-.482l.041-.478a1.271,1.271,0,0,1,.021-.279c.021-.255.038-.506.052-.76v-.148h0Zm.918-3.515v-.581l-.048-.492a2.806,2.806,0,0,0-.028-.482l-.031-.475c0-.237-.038-.471-.058-.688l-.884-.148a40.6,40.6,0,0,1,.175,4.922l.853.241V63.6a10.1,10.1,0,0,0,.021-1.011Zm-.918,3.515c-.048.887-.12,1.775-.21,2.655l.887-.268c0-.158.031-.32.045-.482l.041-.478a1.271,1.271,0,0,1,.021-.279c.021-.255.038-.506.052-.76v-.148h0Zm.918-3.515v-.581l-.048-.492a2.806,2.806,0,0,0-.028-.482l-.031-.475c0-.237-.038-.471-.058-.688l-.884-.148a40.6,40.6,0,0,1,.175,4.922l.853.241V63.6a10.1,10.1,0,0,0,.021-1.011Zm-.918,3.515c-.048.887-.12,1.775-.21,2.655l.887-.268c0-.158.031-.32.045-.482l.041-.478a1.271,1.271,0,0,1,.021-.279c.021-.255.038-.506.052-.76v-.148h0Zm.918-3.515v-.581l-.048-.492a2.806,2.806,0,0,0-.028-.482l-.031-.475c0-.237-.038-.471-.058-.688l-.884-.148a40.6,40.6,0,0,1,.175,4.922l.853.241V63.6a10.1,10.1,0,0,0,.021-1.011ZM216.77,81.019l.482.23V79.6C217.1,80.076,216.939,80.548,216.77,81.019Zm3.839-14.657h0l-.846-.241c-.048.887-.12,1.775-.21,2.655l.887-.268.894-.272c.048-.543.089-1.09.12-1.637Zm-.344,3.677h0l-.9.272a.451.451,0,0,1-.024.179q-.048.344-.1.712c-.158,1.032-.344,2.064-.571,3.1v6.474a55.171,55.171,0,0,0,2.229-9.071c.038-.234.076-.471.107-.709s.069-.475.1-.712c.028-.175.048-.344.069-.53Zm1.132-10-.881-.151-.884-.148a40.6,40.6,0,0,1,.175,4.922l.853.241.853.241a43.588,43.588,0,0,0-.107-5.1Zm-.2-1.72-.447.158.482.083a1.376,1.376,0,0,0-.024-.227Zm-1.448,7.788c-.048.887-.12,1.775-.21,2.655l.887-.268c0-.158.031-.32.045-.482l.041-.478a1.269,1.269,0,0,1,.021-.279c.021-.255.038-.506.052-.76v-.148h0Zm.918-3.515v-.581l-.034-.478a2.81,2.81,0,0,0-.027-.482l-.031-.475c0-.237-.038-.471-.059-.688l-.884-.148a40.59,40.59,0,0,1,.175,4.922l.853.241V63.6a10.1,10.1,0,0,0,0-1.011Zm-.918,3.515c-.048.887-.12,1.775-.21,2.655l.887-.268c0-.158.031-.32.045-.482l.041-.478a1.269,1.269,0,0,1,.021-.279c.021-.255.038-.506.052-.76v-.148h0Zm.918-3.515v-.581l-.034-.478a2.81,2.81,0,0,0-.027-.482l-.031-.475c0-.237-.038-.471-.059-.688l-.884-.148a40.59,40.59,0,0,1,.175,4.922l.853.241V63.6a10.1,10.1,0,0,0,0-1.011Zm-.918,3.515c-.048.887-.12,1.775-.21,2.655l.887-.268c0-.158.031-.32.045-.482l.041-.478a1.269,1.269,0,0,1,.021-.279c.021-.255.038-.506.052-.76v-.148h0Zm.918-3.515v-.581l-.034-.478a2.81,2.81,0,0,0-.027-.482l-.031-.475c0-.237-.038-.471-.059-.688l-.884-.148a40.59,40.59,0,0,1,.175,4.922l.853.241V63.6a10.1,10.1,0,0,0,0-1.011Z" transform="translate(-142.205 -38.259)"/><path class="b" d="M222.19,127.247l.031-2.655,6.8-2.631v8.782Z" transform="translate(-145.761 -80.008)"/><path class="b" d="M199.826,88.33l6.257,1.933v10.66l-.482-.23L199.75,97.92Z" transform="translate(-131.04 -57.946)"/><path class="b" d="M211.516,82.743l-1.7.516h0l-5.29-1.637L210.1,79.63l1.634.457.839.237v0l.85.237,2.738.771L213.3,82.2l-.891.272Z" transform="translate(-134.175 -52.239)"/><path class="b" d="M223.714,67.063l-1-.282V62l.822.141.891.148.881.151,4.062.688v5.528l-3.945-1.111-.86-.241Z" transform="translate(-146.102 -40.673)"/><path class="b" d="M233.756,53.29l5.507,1.2-5.51,1.6-4.891-.829-.482-.083.44-.158Z" transform="translate(-149.822 -34.959)"/><path class="b" d="M274.526,68.309l-4.076,1.668V67.6Z" transform="translate(-177.421 -44.347)"/><path class="b" d="M244.181,63.849v1.723l-5.545,6.945-8.056,5.039-.076,1.328V78.75l-.722.279-7.5,2.9V71.124l.389-.12h.01l.3-.093.9-.272v0h.007l.894-.272,5.72-1.734V61.259l6.924-2.009v7.364Z" transform="translate(-145.82 -38.869)"/><path class="c" d="M195.89,77.691v.43l.186-.5Zm24.962,4.176-8.255,5.16-.114,1.882.722-.279v10.89l.072-.034.688-11.644,7.853-4.909,5.067-6.339V74.32Z" transform="translate(-128.507 -48.755)"/><path class="d" d="M223.41,93.42h.01l.279.086.829.258.829.258,1.094.337" transform="translate(-146.561 -61.285)"/><path class="c" d="M225.916,92.979l-.206.678-.206.678-.987-.306-.836-.255-.829-.258-.571-.175v-.5l.389-.12h.01l.3-.093.9-.272v0h.007l.822.258Z" transform="translate(-145.82 -60.583)"/><path class="b" d="M244.181,63.849v9.487l-6.752,3.33v9.693l-6.852,3.247-.072.034V78.75l-.722.279-7.5,2.9V71.124l.389-.12h.01l.3-.093.9-.272v0h.007l.894-.272,5.72-1.734V61.259l6.924-2.009v7.364Z" transform="translate(-145.82 -38.869)"/><path class="c" d="M159.137,137.456l-8.465,3.123a8.166,8.166,0,0,1-5.686,0l-3.784-1.427a1.782,1.782,0,0,1,0-3.361l6.6-2.291Z" transform="translate(-91.851 -87.579)"/><path class="b" d="M146.175,140.18a8.992,8.992,0,0,1-3.144-.564l-3.784-1.431a2.642,2.642,0,0,1,.038-4.977l6.879-2.408,13.866,4.816-10.725,3.994A9.033,9.033,0,0,1,146.175,140.18Zm0-7.543-6.315,2.2a.887.887,0,0,0-.619.853.912.912,0,0,0,.619.887l3.784,1.431a7.3,7.3,0,0,0,5.08,0l6.229-2.322Z" transform="translate(-90.209 -85.808)"/><path class="c" d="M152.847,98.416l-5.648,10.57c-1.011,2.2,1.847,2.638,1.847,2.638l-1.551.571a8.207,8.207,0,0,1-3.718.3,16.039,16.039,0,0,1-3.182-1l-1.885-.688a4.613,4.613,0,0,1-2.728-5.927,4.786,4.786,0,0,1,.292-.633l6.3-11.389a5.445,5.445,0,0,1,6.553-2.508l.688.237a5.541,5.541,0,0,1,3.051,7.825Z" transform="translate(-89.017 -59.075)"/><path class="b" d="M143.286,111.779a8.785,8.785,0,0,1-1.345-.1,13.614,13.614,0,0,1-2.817-.839l-.537-.2-1.885-.688a5.469,5.469,0,0,1-3.233-7.027,5.726,5.726,0,0,1,.344-.753L140.118,90.8a6.3,6.3,0,0,1,7.588-2.9l.688.237a6.388,6.388,0,0,1,3.928,8.135,6.256,6.256,0,0,1-.4.908l-5.638,10.546c-.21.471-.107.664-.072.729.213.4,1.032.636,1.28.688l3.312.509-4.716,1.72A8.943,8.943,0,0,1,143.286,111.779Zm2.342-22.534a4.568,4.568,0,0,0-4,2.367l-6.3,11.379a3.749,3.749,0,0,0,1.448,5.1,3.392,3.392,0,0,0,.533.244l1.885.688.544.2a12.038,12.038,0,0,0,2.47.75,7.485,7.485,0,0,0,2.938-.151,2.212,2.212,0,0,1-.444-.581,2.459,2.459,0,0,1,.031-2.284l.024-.048,5.651-10.57a4.668,4.668,0,0,0-1.954-6.305,4.845,4.845,0,0,0-.629-.275l-.688-.237a4.7,4.7,0,0,0-1.507-.268Z" transform="translate(-87.334 -57.431)"/><path class="c" d="M149.02,96.621l-.344.874c1.438-3.581-1.032-4.472-3.354-3.6L140.507,96.3l-11.327-4.2,6.628-2.3a14.313,14.313,0,0,1,9.39,0l.516.179A5.482,5.482,0,0,1,149.02,96.621Z" transform="translate(-84.744 -58.384)"/><path class="b" d="M144.66,96.165l-1.6-.623.114-.3c.344-.98.344-1.72,0-2.1a2.416,2.416,0,0,0-2.308-.11l-5.125,2.542-13.917-5.16,8.892-3.1a15.193,15.193,0,0,1,9.955,0l.516.179a5.971,5.971,0,0,1,3.471,3.171A6.257,6.257,0,0,1,145,95.263l-.21.557A2.659,2.659,0,0,1,144.66,96.165Zm-17.766-5.693,8.73,3.233,4.585-2.27a4.881,4.881,0,0,1,2.752-.261,4.258,4.258,0,0,0-2.36-2.043l-.516-.179a13.522,13.522,0,0,0-8.826,0Z" transform="translate(-79.915 -56.734)"/></svg>