<svg xmlns="http://www.w3.org/2000/svg" width="465.84" height="70.661" viewBox="0 0 465.84 70.661"><defs><style>.a{fill:#a341b6;}.b{fill:#febf0f;}.c{fill:#fff;}</style></defs><path class="a" d="M295.715,23.73h42.811v7.625L310.878,67.774h28.341v9.858H295V70.014L322.651,33.57H295.715Z" transform="translate(-189.598 -15.252)"/><path class="a" d="M443.546,19.417a5.838,5.838,0,0,1,1.786,4.352,5.96,5.96,0,0,1-1.786,4.391,6.074,6.074,0,0,1-4.466,1.786,6.192,6.192,0,0,1-4.505-1.786,5.9,5.9,0,0,1-1.808-4.391,5.774,5.774,0,0,1,1.808-4.352,6.267,6.267,0,0,1,4.505-1.733A6.128,6.128,0,0,1,443.546,19.417Zm-9.933,14.749h10.858V73.751H433.613Z" transform="translate(-278.14 -11.365)"/><path class="a" d="M522.85,93.425v9.165H517.3q-7.471,0-7.317-6.467a15.006,15.006,0,0,1-5.313,5.163,15.246,15.246,0,0,1-7.625,1.786q-6.624,0-10.665-3.041a10.114,10.114,0,0,1-4.045-8.575,11.393,11.393,0,0,1,4.645-9.743q4.645-3.43,13.516-3.426h7.86V76.361a5.148,5.148,0,0,0-2-4.288,8.3,8.3,0,0,0-5.381-1.611,8.592,8.592,0,0,0-4.927,1.308,5.22,5.22,0,0,0-2.312,3.544H483.265a12.225,12.225,0,0,1,5.392-9.436q4.856-3.362,12.863-3.348,8.393,0,12.977,3.694t4.584,10.719V90.878a2.587,2.587,0,0,0,.615,2,2.9,2.9,0,0,0,1.926.54Zm-14.478-7.932H500.44a8.953,8.953,0,0,0-5.277,1.347,4.413,4.413,0,0,0-1.869,3.8,3.981,3.981,0,0,0,1.579,3.312,6.783,6.783,0,0,0,4.287,1.233,9.136,9.136,0,0,0,6.7-2.426,8.972,8.972,0,0,0,2.544-6.506Z" transform="translate(-310.003 -40.189)"/><path class="b" d="M609.74,24h15.174l14.931,39.588L654.33,24H669.2V77.912H658.182V41.793L644.165,77.912h-9.393L620.755,41.793V77.912H609.74Z" transform="translate(-391.883 -15.426)"/><path class="b" d="M835.84,93.678v9.165h-5.545q-7.471,0-7.317-6.471a14.938,14.938,0,0,1-5.313,5.159,15.271,15.271,0,0,1-7.625,1.786q-6.624,0-10.669-3.041A10.093,10.093,0,0,1,795.33,91.7a11.384,11.384,0,0,1,4.645-9.74q4.645-3.426,13.516-3.426h7.86V76.61a5.167,5.167,0,0,0-2-4.288,8.354,8.354,0,0,0-5.384-1.6,8.592,8.592,0,0,0-4.927,1.308,5.209,5.209,0,0,0-2.312,3.544H796.255a12.228,12.228,0,0,1,5.388-9.436q4.852-3.362,12.863-3.351,8.393,0,12.977,3.7t4.581,10.719V91.141a2.578,2.578,0,0,0,.618,2,2.882,2.882,0,0,0,1.926.54Zm-14.481-7.946h-7.925a8.956,8.956,0,0,0-5.274,1.347,4.4,4.4,0,0,0-1.887,3.812,3.98,3.98,0,0,0,1.579,3.312,6.783,6.783,0,0,0,4.287,1.233,9.136,9.136,0,0,0,6.7-2.426,8.965,8.965,0,0,0,2.54-6.51Z" transform="translate(-511.163 -40.356)"/><path class="b" d="M944.656,64.1v9.858h-4.288q-4.623,0-6.789,2.773a11.863,11.863,0,0,0-2.144,7.546v19.408H920.56V64.1h9.858l1.018,5.931a12.31,12.31,0,0,1,4.391-4.43,14.055,14.055,0,0,1,7.006-1.5Z" transform="translate(-591.649 -41.198)"/><path class="b" d="M1001.6,24h10.862V55.192l15.556-16.864h12.148l-14.092,15.478,14.863,24.107h-12.555l-10-16.021-5.917,6.413V77.93H1001.6Z" transform="translate(-643.734 -15.426)"/><path class="b" d="M1113.171,72.4a17.565,17.565,0,0,1,7.01-7.085,21.162,21.162,0,0,1,10.437-2.5,22.856,22.856,0,0,1,10.587,2.351,17.508,17.508,0,0,1,7.146,6.624A20.761,20.761,0,0,1,1150.7,85.53h-28.723v.307a10.8,10.8,0,0,0,2.773,6.789,8.657,8.657,0,0,0,6.546,2.465,9.913,9.913,0,0,0,5.506-1.429,6.732,6.732,0,0,0,2.887-4.2H1150.4a15.581,15.581,0,0,1-3,7.085,16.291,16.291,0,0,1-6.317,4.97,21.27,21.27,0,0,1-9.011,1.808,24.805,24.805,0,0,1-11.433-2.462,17.354,17.354,0,0,1-7.392-7.049,21.331,21.331,0,0,1-2.58-10.665A22.1,22.1,0,0,1,1113.171,72.4Zm26.994,6.045a8.473,8.473,0,0,0-2.962-5.584,9.374,9.374,0,0,0-6.124-1.962,8.97,8.97,0,0,0-5.97,2.04,8.35,8.35,0,0,0-2.887,5.506Z" transform="translate(-713.834 -40.369)"/><path class="b" d="M1235.116,53.341h-6.546V44.176h6.546V33.1h10.862V44.176h9.011v9.165h-9.011V70.669a4.221,4.221,0,0,0,.886,3,3.985,3.985,0,0,0,2.962.925h5.624v9.165h-9.011q-11.319,0-11.323-11.323Z" transform="translate(-789.609 -21.274)"/><path class="b" d="M63.157,101.2,60.27,130.2a2.208,2.208,0,0,1-2.858,1.887l-2.5-.8-.85-.272.9-3.269,2.751-10.065h0L63.686,95.88Z" transform="translate(-34.745 -61.623)"/><path class="b" d="M156.472,69.07v6.789a2.823,2.823,0,0,1-5.642,0V69.924Z" transform="translate(-96.939 -44.392)"/><path class="b" d="M130.075,62.13,125.18,93.275l-.118.765c-.958,6.128-1.529,8.857-5.07,9.383-9.676,1.429-32.989,5.152-45.562,7.171a4.012,4.012,0,0,0,.715-1.908l3.862-38.874,20.934-3.173v4.766a4.609,4.609,0,0,0,9.215,0v-6.16l13.127-1.99Z" transform="translate(-47.837 -39.932)"/><path class="c" d="M87.131,62.237v1.808l5.642-.858V61.379Zm24.575-3.727-4.373.665,4.455-.643ZM62.492,67.346,56.622,88.8h0L52.613,103.45l-.893,3.266,1.7.561.9-3.276,1.5-5.474L61.66,77.179l.522-5.317.447-4.48Z" transform="translate(-33.241 -37.605)"/><path class="b" d="M71.371,50.788l.893-.118v8.157a2.558,2.558,0,0,1-.336,1.272h0L71,59.877l-2.969-.715-.922-.222a.578.578,0,0,1,0-.111V51.345L68,51.227Z" transform="translate(-43.127 -32.567)"/><path class="b" d="M73.876,5.517V9.033l-.893-.254V18.3l-3.373.447V5.524a1.51,1.51,0,0,1,.043-.357s0,0,0-.018a3.237,3.237,0,0,1,.121-.715l.029-.1a3.326,3.326,0,0,1,.661-1.258,2.576,2.576,0,0,1,3.416,2.44Z" transform="translate(-44.739 -1.888)"/><path class="c" d="M68.655.57a3.33,3.33,0,0,0-2.062,2.219l-.029.1a3.237,3.237,0,0,0-.121.715,1.683,1.683,0,0,1,3.326.379V7.251l.893.254.893.254V4A3.48,3.48,0,0,0,68.655.57Zm1.115,18.018v8.039a1.69,1.69,0,0,1-.357,1.05l.922.222h0l.893.218a3.466,3.466,0,0,0,.336-1.49V18.342l-.893.118Zm-3.373.45-1.786.236V26.52l.9.218.922.222a1.457,1.457,0,0,1-.036-.332ZM65.3,28.707a3.469,3.469,0,0,0,2.78,1.393,3.408,3.408,0,0,0,1.429-.314Z" transform="translate(-41.525 -0.367)"/><path class="b" d="M29.387,70.094l-.447,4.48-.529,5.317L25.525,108.9a2.208,2.208,0,0,1-2.858,1.887l-2.5-.8-1.7-.543L6.431,105.595a4.248,4.248,0,0,1-2.93-3.376L0,62.73l10.887,2.63,12.891,3.3L28,69.729l1.254.322Z" transform="translate(0 -40.318)"/><path class="c" d="M10.666,60l-.286.039L18.1,61.9Z" transform="translate(-6.671 -38.563)"/><path class="b" d="M58.776,42.11v9.7L36.945,54.955l-.579-.139-.893-.218h0l-.922-.222-2.969-.718-.922-.222-.9-.218L18.119,50.4,10.38,48.534l.286-.039,19.09-2.533,1.786-.236,3.373-.45.893-.118.893-.118Z" transform="translate(-6.671 -27.065)"/><path class="b" d="M155.225,40.681v9.072l-5.642.815V39.38l-.693-.2.693.164,1.876.45h.036Z" transform="translate(-95.692 -25.182)"/><path class="b" d="M188.849,51.224l-4.455.643L171.62,53.711V47.14L188.767,51.2Z" transform="translate(-110.301 -30.298)"/><path class="c" d="M149.363,37.665h0l-3.684-.872-.657-.154-.247.032-.893.118-1.072.143,1.072.3.893.254.2.057h0l.693.2v.883l5.652,1.354V38.13Zm-3.687,10.362v1.786L151.317,49V47.216Z" transform="translate(-91.785 -23.549)"/><path class="b" d="M154.871,24.8V45.167a2.823,2.823,0,0,1-5.642,0V27.889l-.693-.2h0l-.2-.057V24.8a3.716,3.716,0,0,1,2.472-3.5l1.294.357a3.327,3.327,0,0,1,1.115.579h0A2.833,2.833,0,0,1,154.871,24.8Z" transform="translate(-95.339 -13.69)"/><path class="c" d="M150.489,21.045l-1.293-.357-1.268-.357a4.609,4.609,0,0,0-2.1,3.862v2.576l.893.254.2.057h0l.693.2v-3.1a2.819,2.819,0,0,1,3.995-2.565A3.327,3.327,0,0,0,150.489,21.045Z" transform="translate(-93.726 -13.067)"/><path class="b" d="M103.866,12.1l-.029.1a3.323,3.323,0,0,1-1.451,1.922h0a3.326,3.326,0,0,1-1.786.5h-.036a3.38,3.38,0,0,1-.854-.125L98.689,14.2,98,14h0l-.2-.057-.893-.254-1.072-.3L74.84,7.408l-.893-.261-.893-.254-.911-.261a3.337,3.337,0,0,1-2.419-3.369V3.246a3.237,3.237,0,0,1,.121-.715l.029-.1a3.33,3.33,0,0,1,4.12-2.3L99,7.251l1.268.357,1.293.357a3.326,3.326,0,0,1,1.125.582h0a3.334,3.334,0,0,1,1.175,3.548Z" transform="translate(-44.809 -0.002)"/><path class="c" d="M148.825,153.077l-8.364,3.1a8.061,8.061,0,0,1-5.61,0l-3.716-1.408a1.754,1.754,0,0,1,0-3.312l6.506-2.265Z" transform="translate(-83.526 -95.886)"/><path class="b" d="M148.11,150.727l-7.117-2.472-.854-.3-.854-.3-3.191-1.108-6.789,2.365a2.64,2.64,0,0,0-1.343,1.033,2.612,2.612,0,0,0-.432,1.261h0v.172a2.633,2.633,0,0,0,1.365,2.351,1.79,1.79,0,0,0,.186.093c.061.029.129.054.193.079L133,155.332l.1.032a7.777,7.777,0,0,0,.922.275l.322.071h.093l.2.036.218.036h0l.236.029h.025l.222.021h0l.247.018h1.05a4.925,4.925,0,0,0,.625-.061l.393-.061c.132-.021.261-.05.389-.079a6.52,6.52,0,0,0,.715-.2l.075-.021h.032l.314-.111.968-.357,3.4-1.261,4.288-1.594h0l2.026-.75Zm-8.075,2.38-1.2.447-.243.089a6.287,6.287,0,0,1-.765.232,6.433,6.433,0,0,1-.782.154c-.189.025-.375.039-.564.05h-.715a1.589,1.589,0,0,1-.318-.021h-.15l-.154-.018h-.182a2.219,2.219,0,0,1-.261-.046,6.352,6.352,0,0,1-.911-.243l-.193-.064-3.723-1.411a.865.865,0,0,1-.586-.832.843.843,0,0,1,.582-.8l6.213-2.144,2.337.811.858.3.85.3,4.484,1.558Z" transform="translate(-81.964 -94.189)"/><path class="c" d="M142.758,116.151l-5.574,10.426c-1,2.169,1.826,2.6,1.826,2.6l-1.547.565a8.132,8.132,0,0,1-3.673.3,15.986,15.986,0,0,1-3.137-.983l-1.862-.69a4.552,4.552,0,0,1-2.4-6.474l6.21-11.223a5.359,5.359,0,0,1,6.463-2.472l.675.236a5.449,5.449,0,0,1,3.016,7.718Z" transform="translate(-80.867 -69.347)"/><path class="b" d="M142.23,109.728a6.331,6.331,0,0,0-3.823-3.68l-.314-.111h-.036l-.325-.114a6.109,6.109,0,0,0-.736-.207h-.036a6.21,6.21,0,0,0-3.816.4,6.127,6.127,0,0,0-1.569.993,6.256,6.256,0,0,0-1.379,1.7l-1.122,2.029-.439.793-.447.772-4.216,7.614a5.434,5.434,0,0,0,2.169,7.417,1.783,1.783,0,0,0,.186.093,3.691,3.691,0,0,0,.515.229l1.861.69.522.2c.332.129.672.257,1.022.375l.1.032c.3.1.6.2.922.275l.322.071h.093l.2.036.139.025h.1l.236.029h.025l.222.021h0l.247.018h1.05a4.926,4.926,0,0,0,.625-.061l.393-.061c.132-.021.261-.05.389-.079a6.517,6.517,0,0,0,.715-.2l.075-.021h.032l1.283-.472,3.437-1.254h-.036L139.025,127l-1.554-.254a1.9,1.9,0,0,1-.211-.046,1.754,1.754,0,0,1-1.025-.6.8.8,0,0,1,.071-.679l1.072-1.979.429-.8.425-.8,3.648-6.828c.057-.1.107-.207.157-.314a.194.194,0,0,1,0-.039,5.717,5.717,0,0,0,.314-.843h0a6.317,6.317,0,0,0-.121-4.091Zm-6.1,12.33-.429.8-.94,1.747-.021.046a2.465,2.465,0,0,0-.032,2.294,2.272,2.272,0,0,0,.386.522h0a6.829,6.829,0,0,1-.786.146c-.2.025-.386.043-.565.05h-.715a1.5,1.5,0,0,1-.318-.021h-.15l-.154-.018h-.182a1.334,1.334,0,0,1-.261-.046,9.015,9.015,0,0,1-.911-.243l-.193-.064c-.336-.114-.668-.239-1.011-.357l-.536-.2-1.844-.722a3.616,3.616,0,0,1-1.747-1.365,3.528,3.528,0,0,1-.411-.79,2.8,2.8,0,0,1-.089-.279,3.644,3.644,0,0,1,.318-2.765l4.345-7.86.439-.79.436-.79.993-1.786a4.466,4.466,0,0,1,3.912-2.312,4.56,4.56,0,0,1,.9.093h.025a4.52,4.52,0,0,1,.55.154l.3.1.061.021.311.111a4.573,4.573,0,0,1,2.751,2.644c.054.139.1.275.143.418h0a4.534,4.534,0,0,1-.286,3.216,1.441,1.441,0,0,1-.086.172l-3.78,7.074Z" transform="translate(-79.239 -67.793)"/><path class="c" d="M139.243,114.471l-.325.861c1.429-3.53-1.036-4.395-3.309-3.551l-4.766,2.365-11.173-4.137,6.538-2.276a14.1,14.1,0,0,1,9.265,0l.507.179A5.4,5.4,0,0,1,139.243,114.471Z" transform="translate(-76.913 -68.738)"/><path class="b" d="M134.956,108.645a5.913,5.913,0,0,0-3.448-3.151l-.2-.068-.314-.111h-.036q-.525-.182-1.072-.322h-.036a15.006,15.006,0,0,0-8.718.357l-6.3,2.19-2.59.9,2.39.886,6.453,2.394.843.314.847.311,3.33,1.236,5.07-2.519a2.283,2.283,0,0,1,2.226.1c.382.393.339,1.072,0,2.026l-.093.243-.018.05.829.325.836.325a.194.194,0,0,1,0-.039c.039-.1.075-.2.111-.3l.2-.547h0A6.072,6.072,0,0,0,134.956,108.645Zm-11.287,2.087-.847-.314-.843-.314-4.434-1.644L121.733,107a12.987,12.987,0,0,1,2.748-.632,12.545,12.545,0,0,1,1.758-.093,12.9,12.9,0,0,1,3.237.443h.025c.286.075.568.161.85.257l.061.021.311.111.2.068a4.109,4.109,0,0,1,2.258,1.908h-.036a4.963,4.963,0,0,0-2.612.286l-4.509,2.237Z" transform="translate(-72.144 -67.171)"/><path class="c" d="M19.25,81.66l1.7,33.207,3.719,1.172.5-32.935Z" transform="translate(-12.372 -52.484)"/><path class="c" d="M48.78,87.69l-.35,33.875,4.781,1.508,2.8-33.546Z" transform="translate(-31.126 -56.36)"/><path class="c" d="M96.512,90.7,93.55,124.362l6.474-1.458,3.741-33.114Z" transform="translate(-60.125 -57.709)"/><path class="c" d="M188.722,74.517l-5.692,33.8,6.371-1.183,6.267-33.511Z" transform="translate(-117.634 -47.317)"/></svg>